<svg width="16" height="15" viewBox="0 0 16 15" fill="none" xmlns="http://www.w3.org/2000/svg">
<g clip-path="url(#clip0)">
<path fill-rule="evenodd" clip-rule="evenodd" d="M15.9396 11.0368C15.8414 10.8706 15.577 10.7724 15.1841 10.576C14.7913 10.3796 12.8574 9.42776 12.4948 9.29178C12.1322 9.16336 11.8678 9.09537 11.611 9.4882C11.3466 9.88102 10.5911 10.7724 10.3645 11.0293C10.1379 11.2937 9.90368 11.3239 9.51086 11.1275C9.11804 10.9311 7.84891 10.5156 6.34561 9.17092C5.17469 8.12842 4.38905 6.83664 4.15486 6.44382C3.92823 6.05099 4.1322 5.83947 4.32861 5.64306C4.50236 5.46931 4.72144 5.18225 4.91785 4.95562C5.11426 4.72899 5.18225 4.5628 5.31067 4.29839C5.43909 4.03399 5.37866 3.80737 5.28045 3.61095C5.18225 3.41454 4.3966 1.47309 4.06421 0.687441C3.74693 -0.075543 3.4221 0.0226629 3.18036 0.0151086C2.95373 0 2.68933 0 2.42493 0C2.16808 0 1.73749 0.0982059 1.37488 0.491029C1.01983 0.883853 0 1.83569 0 3.77715C0 5.7186 1.41265 7.58451 1.60907 7.84891C1.80548 8.11331 4.38149 12.0869 8.33239 13.7941C9.26912 14.2021 10.0019 14.4438 10.576 14.6251C11.5203 14.9273 12.3739 14.882 13.0538 14.7838C13.8093 14.6704 15.3805 13.8319 15.7129 12.9103C16.0378 11.9887 16.0378 11.1955 15.9396 11.0368Z" fill="black"/>
</g>
<defs>
<clipPath id="clip0">
<rect width="16" height="14.8517" fill="white"/>
</clipPath>
</defs>
</svg>
