<svg width="263" height="105" viewBox="0 0 263 105" fill="none" xmlns="http://www.w3.org/2000/svg">
<path d="M8.092 4.17C12.622 4.17 16.342 7.59 16.342 12.06C16.342 16.5 12.622 20.01 8.092 20.01H4.792V4.17H8.092ZM1.492 23.34H8.212C14.512 23.34 19.642 18.45 19.642 12.09C19.642 5.76 14.572 0.84 8.212 0.84H1.492V23.34Z" fill="black"/>
<path d="M25.6807 0.84H22.3807V23.34H25.6807V0.84Z" fill="black"/>
<path d="M50.5877 16.95V10.8H39.5177V13.74H47.4977V16.08C46.6277 18.03 44.3477 20.31 40.2377 20.31C35.7377 20.31 32.0177 16.59 32.0177 12.09C32.0177 7.59 35.7377 3.87 40.2377 3.87C43.2377 3.87 45.3977 5.43 46.7477 7.14L49.3877 5.16C47.2877 2.37 43.9877 0.57 40.2377 0.57C33.8177 0.57 28.6877 5.73 28.6877 12.09C28.6877 18.45 33.8177 23.61 40.2377 23.61C45.4277 23.61 48.9377 20.64 50.5877 16.95Z" fill="black"/>
<path d="M56.8818 0.84H53.5818V23.34H56.8818V0.84Z" fill="black"/>
<path d="M72.1518 4.17V0.84H59.2518V4.17H64.0518V23.34H67.3518V4.17H72.1518Z" fill="black"/>
<path d="M79.4768 0.450001L70.3268 23.34H73.8368L75.2168 19.86H83.7368L85.1168 23.34H88.6268L79.4768 0.450001ZM79.4768 9.15L82.5668 16.92H76.3868L79.4768 9.15Z" fill="black"/>
<path d="M91.0232 23.34H100.953V20.04H94.3232V0.84H91.0232V23.34Z" fill="black"/>
<path d="M112.623 12.09C112.623 18.45 117.753 23.61 124.173 23.61C128.343 23.61 132.033 21.36 134.073 18.03L131.253 16.17C129.813 18.6 127.143 20.31 124.173 20.31C119.643 20.31 115.923 16.56 115.923 12.09C115.923 7.62 119.643 3.87 124.173 3.87C127.143 3.87 129.813 5.58 131.253 8.01L134.073 6.15C132.033 2.82 128.343 0.57 124.173 0.57C117.753 0.57 112.623 5.73 112.623 12.09Z" fill="black"/>
<path d="M147.668 23.61C154.028 23.61 159.158 18.45 159.158 12.09C159.158 5.73 154.028 0.57 147.668 0.57C141.308 0.57 136.178 5.73 136.178 12.09C136.178 18.45 141.308 23.61 147.668 23.61ZM147.668 20.31C143.198 20.31 139.478 16.56 139.478 12.09C139.478 7.62 143.198 3.87 147.668 3.87C152.138 3.87 155.858 7.62 155.858 12.09C155.858 16.56 152.138 20.31 147.668 20.31Z" fill="black"/>
<path d="M179.969 23.91V0.84H176.669V15.72L162.449 0V23.34H165.749V8.19L179.969 23.91Z" fill="black"/>
<path d="M195.228 4.17V0.84H182.328V4.17H187.128V23.34H190.428V4.17H195.228Z" fill="black"/>
<path d="M197.605 23.34H209.215V20.04H200.905V13.11H207.445V10.17H200.905V4.14H209.215V0.84H197.605V23.34Z" fill="black"/>
<path d="M230.418 23.91V0.84H227.118V15.72L212.898 0V23.34H216.198V8.19L230.418 23.91Z" fill="black"/>
<path d="M245.677 4.17V0.84H232.777V4.17H237.577V23.34H240.877V4.17H245.677Z" fill="black"/>
<path d="M7.132 50.58C4.732 50.58 3.562 49.17 3.562 47.37H0.412C0.412 51.09 2.842 53.61 7.132 53.61C10.972 53.61 13.582 50.73 13.582 47.79C13.582 44.79 12.202 43.26 9.742 41.82L6.742 40.05C5.032 39.06 3.982 38.25 3.982 36.45C3.982 34.77 5.302 33.6 7.042 33.6C9.142 33.6 9.892 35.16 9.892 36.33H13.042C13.042 33.03 10.732 30.57 7.222 30.57C3.082 30.57 0.622 33.39 0.622 36.42C0.622 38.76 1.582 40.71 4.162 42.24L8.332 44.7C9.322 45.3 10.252 46.17 10.252 47.7C10.252 49.38 9.082 50.58 7.132 50.58Z" fill="black"/>
<path d="M26.8589 34.17V30.84H13.9589V34.17H18.7589V53.34H22.0589V34.17H26.8589Z" fill="black"/>
<path d="M37.6061 53.61C41.6261 53.61 44.8661 50.76 44.8661 46.71V30.84H41.5661V46.44C41.5661 48.51 40.2761 50.31 37.4261 50.31H36.6761C33.8261 50.31 32.5361 48.51 32.5361 46.44V30.84H29.2361V46.71C29.2361 50.76 32.4761 53.61 36.4961 53.61H37.6061Z" fill="black"/>
<path d="M55.6701 34.17C60.2001 34.17 63.9201 37.59 63.9201 42.06C63.9201 46.5 60.2001 50.01 55.6701 50.01H52.3701V34.17H55.6701ZM49.0701 53.34H55.7901C62.0901 53.34 67.2201 48.45 67.2201 42.09C67.2201 35.76 62.1501 30.84 55.7901 30.84H49.0701V53.34Z" fill="black"/>
<path d="M73.2588 30.84H69.9588V53.34H73.2588V30.84Z" fill="black"/>
<path d="M87.7558 53.61C94.1158 53.61 99.2458 48.45 99.2458 42.09C99.2458 35.73 94.1158 30.57 87.7558 30.57C81.3958 30.57 76.2658 35.73 76.2658 42.09C76.2658 48.45 81.3958 53.61 87.7558 53.61ZM87.7558 50.31C83.2858 50.31 79.5658 46.56 79.5658 42.09C79.5658 37.62 83.2858 33.87 87.7558 33.87C92.2258 33.87 95.9458 37.62 95.9458 42.09C95.9458 46.56 92.2258 50.31 87.7558 50.31Z" fill="black"/>
<path d="M6.16 82.484C8.592 82.484 10.688 81.06 11.68 79.012L10.592 78.5C9.792 80.148 8.096 81.3 6.16 81.3C3.424 81.3 1.184 79.044 1.184 76.34C1.184 73.636 3.424 71.38 6.16 71.38C8.096 71.38 9.792 72.516 10.592 74.164L11.68 73.668C10.688 71.62 8.592 70.196 6.16 70.196C2.736 70.196 0 72.948 0 76.34C0 79.732 2.736 82.484 6.16 82.484Z" fill="black"/>
<path d="M18.8475 82.484C22.2395 82.484 24.9915 79.732 24.9915 76.34C24.9915 72.948 22.2395 70.196 18.8475 70.196C15.4395 70.196 12.6875 72.948 12.6875 76.34C12.6875 79.732 15.4395 82.484 18.8475 82.484ZM23.8075 76.34C23.8075 79.044 21.5515 81.3 18.8475 81.3C16.1275 81.3 13.8715 79.044 13.8715 76.34C13.8715 73.636 16.1275 71.38 18.8475 71.38C21.5515 71.38 23.8075 73.636 23.8075 76.34Z" fill="black"/>
<path d="M36.0591 82.644V70.34H34.8751V79.444L34.8911 79.476L26.7151 69.892V82.34H27.8991V73.076L36.0591 82.644Z" fill="black"/>
<path d="M44.4373 70.34H37.3172V71.524H40.2933V82.34H41.4772V71.54H44.4373V70.34Z" fill="black"/>
<path d="M45.6995 82.34H51.8915V81.156H46.8835V76.692H50.9475V75.508H46.8835V71.524H51.8915V70.34H45.6995V82.34Z" fill="black"/>
<path d="M57.9227 69.636L60.4028 67.284L59.3468 66.42L57.1707 68.996L57.9227 69.636ZM57.6348 82.484H58.1628C60.3228 82.484 62.0667 80.964 62.0667 78.788V70.34H60.8828V78.788C60.8828 80.1 59.8748 81.284 58.0988 81.284H57.6987C55.9227 81.284 54.9147 80.1 54.9147 78.788V70.34H53.7308V78.788C53.7308 80.964 55.4748 82.484 57.6348 82.484Z" fill="black"/>
<path d="M67.9885 81.156H65.5085V71.524H67.9885C70.5325 71.524 72.8205 73.476 72.8205 76.308C72.8205 79.268 70.5325 81.156 67.9885 81.156ZM64.3245 82.34H68.0525C71.4125 82.34 74.0045 79.62 74.0045 76.308C74.0045 73.012 71.4445 70.372 68.0365 70.34H64.3245V82.34Z" fill="black"/>
<path d="M81.2538 82.484C84.6458 82.484 87.3978 79.732 87.3978 76.34C87.3978 72.948 84.6458 70.196 81.2538 70.196C77.8458 70.196 75.0938 72.948 75.0938 76.34C75.0938 79.732 77.8458 82.484 81.2538 82.484ZM86.2138 76.34C86.2138 79.044 83.9578 81.3 81.2538 81.3C78.5338 81.3 76.2777 79.044 76.2777 76.34C76.2777 73.636 78.5338 71.38 81.2538 71.38C83.9578 71.38 86.2138 73.636 86.2138 76.34Z" fill="black"/>
<path d="M97.6384 71.524C99.5104 71.524 100.038 72.58 100.038 73.924C100.038 75.268 99.5104 76.34 97.6384 76.34H95.4304V71.524H97.6384ZM97.6384 77.524C99.9104 77.524 101.222 76.1 101.222 73.924C101.222 71.748 99.9104 70.34 97.6384 70.34H94.2464V82.34H95.4304V77.524H97.6384Z" fill="black"/>
<path d="M105.588 69.892L100.708 82.34H102.004L102.964 79.86H108.212L109.172 82.34H110.468L105.588 69.892ZM105.588 73.076L107.748 78.676H103.428L105.588 73.076Z" fill="black"/>
<path d="M114.514 71.524C116.386 71.524 117.122 72.58 117.122 73.812C117.122 75.092 116.546 76.228 114.514 76.228H112.93V71.524H114.514ZM117.794 82.34H119.266L114.994 77.396C117.058 77.236 118.306 75.94 118.306 73.812C118.306 71.636 116.77 70.34 114.53 70.34H111.746V82.34H112.93V77.412H113.474L117.794 82.34Z" fill="black"/>
<path d="M124.448 69.892L119.568 82.34H120.864L121.824 79.86H127.072L128.032 82.34H129.328L124.448 69.892ZM124.448 73.076L126.608 78.676H122.288L124.448 73.076Z" fill="black"/>
<path d="M141.379 82.484C144.771 82.484 147.523 79.732 147.523 76.34C147.523 72.948 144.771 70.196 141.379 70.196C137.971 70.196 135.219 72.948 135.219 76.34C135.219 79.732 137.971 82.484 141.379 82.484ZM146.339 76.34C146.339 79.044 144.083 81.3 141.379 81.3C138.659 81.3 136.403 79.044 136.403 76.34C136.403 73.636 138.659 71.38 141.379 71.38C144.083 71.38 146.339 73.636 146.339 76.34Z" fill="black"/>
<path d="M154.371 82.34H160.563V81.156H155.555V76.692H159.619V75.508H155.555V71.524H160.563V70.34H154.371V82.34Z" fill="black"/>
<path d="M167.738 82.484C170.17 82.484 172.266 81.06 173.258 79.012L172.17 78.5C171.37 80.148 169.674 81.3 167.738 81.3C165.002 81.3 162.762 79.044 162.762 76.34C162.762 73.636 165.002 71.38 167.738 71.38C169.674 71.38 171.37 72.516 172.17 74.164L173.258 73.668C172.266 71.62 170.17 70.196 167.738 70.196C164.314 70.196 161.578 72.948 161.578 76.34C161.578 79.732 164.314 82.484 167.738 82.484Z" fill="black"/>
<path d="M180.426 82.484C183.818 82.484 186.57 79.732 186.57 76.34C186.57 72.948 183.818 70.196 180.426 70.196C177.018 70.196 174.266 72.948 174.266 76.34C174.266 79.732 177.018 82.484 180.426 82.484ZM185.386 76.34C185.386 79.044 183.13 81.3 180.426 81.3C177.706 81.3 175.45 79.044 175.45 76.34C175.45 73.636 177.706 71.38 180.426 71.38C183.13 71.38 185.386 73.636 185.386 76.34Z" fill="black"/>
<path d="M194.677 79.428C194.677 78.212 194.197 77.204 192.597 76.26L190.869 75.252C189.637 74.532 189.253 74.052 189.253 73.092C189.253 72.196 189.573 71.38 191.189 71.38C192.773 71.38 193.301 72.196 193.301 73.268H194.581C194.581 71.508 193.269 70.196 191.285 70.196C189.285 70.196 188.005 71.428 188.005 73.076C188.005 74.324 188.517 75.172 189.893 76.004L191.957 77.236C193.077 77.908 193.461 78.452 193.461 79.38C193.461 80.436 192.869 81.316 191.269 81.316C189.701 81.316 189.125 80.5 189.125 79.428H187.845C187.845 81.252 189.061 82.484 191.269 82.484C193.317 82.484 194.677 81.188 194.677 79.428Z" fill="black"/>
<path d="M202.818 79.428C202.818 78.212 202.338 77.204 200.738 76.26L199.01 75.252C197.778 74.532 197.394 74.052 197.394 73.092C197.394 72.196 197.714 71.38 199.33 71.38C200.914 71.38 201.442 72.196 201.442 73.268H202.722C202.722 71.508 201.41 70.196 199.426 70.196C197.426 70.196 196.146 71.428 196.146 73.076C196.146 74.324 196.658 75.172 198.034 76.004L200.098 77.236C201.218 77.908 201.602 78.452 201.602 79.38C201.602 80.436 201.01 81.316 199.41 81.316C197.842 81.316 197.266 80.5 197.266 79.428H195.986C195.986 81.252 197.202 82.484 199.41 82.484C201.458 82.484 202.818 81.188 202.818 79.428Z" fill="black"/>
<path d="M205.758 70.34H204.574V82.34H205.758V70.34Z" fill="black"/>
<path d="M214.38 79.428C214.38 78.212 213.9 77.204 212.3 76.26L210.572 75.252C209.34 74.532 208.956 74.052 208.956 73.092C208.956 72.196 209.276 71.38 210.892 71.38C212.476 71.38 213.004 72.196 213.004 73.268H214.284C214.284 71.508 212.972 70.196 210.988 70.196C208.988 70.196 207.708 71.428 207.708 73.076C207.708 74.324 208.22 75.172 209.596 76.004L211.66 77.236C212.78 77.908 213.164 78.452 213.164 79.38C213.164 80.436 212.572 81.316 210.972 81.316C209.404 81.316 208.828 80.5 208.828 79.428H207.548C207.548 81.252 208.764 82.484 210.972 82.484C213.02 82.484 214.38 81.188 214.38 79.428Z" fill="black"/>
<path d="M221.797 70.34H214.677V71.524H217.653V82.34H218.837V71.54H221.797V70.34Z" fill="black"/>
<path d="M223.059 82.34H229.251V81.156H224.243V76.692H228.307V75.508H224.243V71.524H229.251V70.34H223.059V82.34Z" fill="black"/>
<path d="M232.274 82.34V73.94L237.186 81.22L242.098 73.94V82.34H243.282V69.892L237.186 79.204L231.09 69.892V82.34H232.274Z" fill="black"/>
<path d="M249.448 69.892L244.568 82.34H245.864L246.824 79.86H252.072L253.032 82.34H254.328L249.448 69.892ZM249.448 73.076L251.608 78.676H247.288L249.448 73.076Z" fill="black"/>
<path d="M6.896 99.428C6.896 98.212 6.416 97.204 4.816 96.26L3.088 95.252C1.856 94.532 1.472 94.052 1.472 93.092C1.472 92.196 1.792 91.38 3.408 91.38C4.992 91.38 5.52 92.196 5.52 93.268H6.8C6.8 91.508 5.488 90.196 3.504 90.196C1.504 90.196 0.224 91.428 0.224 93.076C0.224 94.324 0.736 95.172 2.112 96.004L4.176 97.236C5.296 97.908 5.68 98.452 5.68 99.38C5.68 100.436 5.088 101.316 3.488 101.316C1.92 101.316 1.344 100.5 1.344 99.428H0.064C0.064 101.252 1.28 102.484 3.488 102.484C5.536 102.484 6.896 101.188 6.896 99.428Z" fill="black"/>
<path d="M14.3006 102.484C17.6926 102.484 20.4446 99.732 20.4446 96.34C20.4446 92.948 17.6926 90.196 14.3006 90.196C10.8926 90.196 8.14062 92.948 8.14062 96.34C8.14062 99.732 10.8926 102.484 14.3006 102.484ZM19.2606 96.34C19.2606 99.044 17.0046 101.3 14.3006 101.3C11.5806 101.3 9.32463 99.044 9.32463 96.34C9.32463 93.636 11.5806 91.38 14.3006 91.38C17.0046 91.38 19.2606 93.636 19.2606 96.34Z" fill="black"/>
<path d="M27.8162 102.484C30.2483 102.484 32.3443 101.06 33.3363 99.012L32.2482 98.5C31.4482 100.148 29.7523 101.3 27.8162 101.3C25.0802 101.3 22.8403 99.044 22.8403 96.34C22.8403 93.636 25.0802 91.38 27.8162 91.38C29.7523 91.38 31.4482 92.516 32.2482 94.164L33.3363 93.668C32.3443 91.62 30.2483 90.196 27.8162 90.196C24.3922 90.196 21.6562 92.948 21.6562 96.34C21.6562 99.732 24.3922 102.484 27.8162 102.484Z" fill="black"/>
<path d="M36.0397 90.34H34.8558V102.34H36.0397V90.34Z" fill="black"/>
<path d="M42.1976 89.892L37.3176 102.34H38.6136L39.5736 99.86H44.8216L45.7816 102.34H47.0776L42.1976 89.892ZM42.1976 93.076L44.3576 98.676H40.0376L42.1976 93.076Z" fill="black"/>
<path d="M48.3558 102.34H53.6678V101.156H49.5397V90.34H48.3558V102.34Z" fill="black"/>
<path d="M54.715 102.34H55.899V100.676H54.715V102.34Z" fill="black"/>
<path d="M66.5101 89.892L61.6301 102.34H62.9261L63.8861 99.86H69.1341L70.0941 102.34H71.3901L66.5101 89.892ZM66.5101 93.076L68.6701 98.676H64.3501L66.5101 93.076Z" fill="black"/>
<path d="M72.6683 102.34H77.9802V101.156H73.8522V90.34H72.6683V102.34Z" fill="black"/>
<path d="M83.2939 90.196L80.4779 98.756L78.2059 90.34H76.9579L80.3659 102.788L83.2939 93.62L86.2219 102.788L89.6299 90.34H88.3819L86.1419 98.852L83.2939 90.196Z" fill="black"/>
<path d="M93.3695 89.892L88.4895 102.34H89.7855L90.7455 99.86H95.9935L96.9535 102.34H98.2495L93.3695 89.892ZM93.3695 93.076L95.5295 98.676H91.2095L93.3695 93.076Z" fill="black"/>
<path d="M100.79 102.34H101.974V96.868L106.134 90.34H104.71L101.382 95.572L98.0697 90.34H96.6458L100.79 96.868V102.34Z" fill="black"/>
<path d="M113.49 99.428C113.49 98.212 113.01 97.204 111.41 96.26L109.682 95.252C108.45 94.532 108.066 94.052 108.066 93.092C108.066 92.196 108.386 91.38 110.002 91.38C111.586 91.38 112.114 92.196 112.114 93.268H113.394C113.394 91.508 112.082 90.196 110.098 90.196C108.098 90.196 106.818 91.428 106.818 93.076C106.818 94.324 107.33 95.172 108.706 96.004L110.77 97.236C111.89 97.908 112.274 98.452 112.274 99.38C112.274 100.436 111.682 101.316 110.082 101.316C108.514 101.316 107.938 100.5 107.938 99.428H106.658C106.658 101.252 107.874 102.484 110.082 102.484C112.13 102.484 113.49 101.188 113.49 99.428Z" fill="black"/>
<path d="M126.019 102.484C129.411 102.484 132.163 99.732 132.163 96.34C132.163 92.948 129.411 90.196 126.019 90.196C122.611 90.196 119.859 92.948 119.859 96.34C119.859 99.732 122.611 102.484 126.019 102.484ZM130.979 96.34C130.979 99.044 128.723 101.3 126.019 101.3C123.299 101.3 121.043 99.044 121.043 96.34C121.043 93.636 123.299 91.38 126.019 91.38C128.723 91.38 130.979 93.636 130.979 96.34Z" fill="black"/>
<path d="M143.231 102.644V90.34H142.047V99.444L142.063 99.476L133.887 89.892V102.34H135.071V93.076L143.231 102.644Z" fill="black"/>
<path d="M144.057 103.924L144.745 104.788C145.513 104.244 145.993 103.556 145.993 102.404V100.676H144.809V102.404C144.809 103.076 144.633 103.492 144.057 103.924Z" fill="black"/>
<path d="M156.588 89.892L151.708 102.34H153.004L153.964 99.86H159.212L160.172 102.34H161.468L156.588 89.892ZM156.588 93.076L158.748 98.676H154.428L156.588 93.076Z" fill="black"/>
<path d="M162.746 102.34H168.058V101.156H163.93V90.34H162.746V102.34Z" fill="black"/>
<path d="M173.372 90.196L170.556 98.756L168.284 90.34H167.036L170.444 102.788L173.372 93.62L176.3 102.788L179.708 90.34H178.46L176.22 98.852L173.372 90.196Z" fill="black"/>
<path d="M183.448 89.892L178.568 102.34H179.864L180.824 99.86H186.072L187.032 102.34H188.328L183.448 89.892ZM183.448 93.076L185.608 98.676H181.288L183.448 93.076Z" fill="black"/>
<path d="M190.868 102.34H192.052V96.868L196.212 90.34H194.788L191.46 95.572L188.148 90.34H186.724L190.868 96.868V102.34Z" fill="black"/>
<path d="M203.568 99.428C203.568 98.212 203.088 97.204 201.488 96.26L199.76 95.252C198.528 94.532 198.144 94.052 198.144 93.092C198.144 92.196 198.464 91.38 200.08 91.38C201.664 91.38 202.192 92.196 202.192 93.268H203.472C203.472 91.508 202.16 90.196 200.176 90.196C198.176 90.196 196.896 91.428 196.896 93.076C196.896 94.324 197.408 95.172 198.784 96.004L200.848 97.236C201.968 97.908 202.352 98.452 202.352 99.38C202.352 100.436 201.76 101.316 200.16 101.316C198.592 101.316 198.016 100.5 198.016 99.428H196.736C196.736 101.252 197.952 102.484 200.16 102.484C202.208 102.484 203.568 101.188 203.568 99.428Z" fill="black"/>
<path d="M221.617 98.932V95.732H216.193V96.916H220.434V98.692C220.098 99.796 218.546 101.3 216.098 101.3C213.378 101.3 211.122 99.044 211.122 96.34C211.122 93.636 213.378 91.38 216.098 91.38C217.714 91.38 219.153 92.164 220.049 93.364L220.993 92.644C219.873 91.156 218.098 90.196 216.098 90.196C212.69 90.196 209.938 92.948 209.938 96.34C209.938 99.732 212.69 102.484 216.098 102.484C219.122 102.484 220.961 100.74 221.617 98.932Z" fill="black"/>
<path d="M228.988 102.484C232.38 102.484 235.132 99.732 235.132 96.34C235.132 92.948 232.38 90.196 228.988 90.196C225.58 90.196 222.828 92.948 222.828 96.34C222.828 99.732 225.58 102.484 228.988 102.484ZM233.948 96.34C233.948 99.044 231.692 101.3 228.988 101.3C226.268 101.3 224.012 99.044 224.012 96.34C224.012 93.636 226.268 91.38 228.988 91.38C231.692 91.38 233.948 93.636 233.948 96.34Z" fill="black"/>
<path d="M242.504 102.484C245.896 102.484 248.648 99.732 248.648 96.34C248.648 92.948 245.896 90.196 242.504 90.196C239.096 90.196 236.344 92.948 236.344 96.34C236.344 99.732 239.096 102.484 242.504 102.484ZM247.464 96.34C247.464 99.044 245.208 101.3 242.504 101.3C239.784 101.3 237.528 99.044 237.528 96.34C237.528 93.636 239.784 91.38 242.504 91.38C245.208 91.38 247.464 93.636 247.464 96.34Z" fill="black"/>
<path d="M254.035 101.156H251.555V91.524H254.035C256.579 91.524 258.867 93.476 258.867 96.308C258.867 99.268 256.579 101.156 254.035 101.156ZM250.371 102.34H254.099C257.459 102.34 260.051 99.62 260.051 96.308C260.051 93.012 257.491 90.372 254.083 90.34H250.371V102.34Z" fill="black"/>
<path d="M261.137 102.34H262.321V100.676H261.137V102.34Z" fill="black"/>
</svg>
