<svg width="178" height="104" viewBox="0 0 178 104" fill="none" xmlns="http://www.w3.org/2000/svg">
<path d="M1.08 12.09C1.08 18.45 6.21 23.61 12.63 23.61C16.8 23.61 20.49 21.36 22.53 18.03L19.71 16.17C18.27 18.6 15.6 20.31 12.63 20.31C8.1 20.31 4.38 16.56 4.38 12.09C4.38 7.62 8.1 3.87 12.63 3.87C15.6 3.87 18.27 5.58 19.71 8.01L22.53 6.15C20.49 2.82 16.8 0.57 12.63 0.57C6.21 0.57 1.08 5.73 1.08 12.09Z" fill="black"/>
<path d="M32.2988 0.450001L23.1488 23.34H26.6588L28.0387 19.86H36.5588L37.9388 23.34H41.4487L32.2988 0.450001ZM32.2988 9.15L35.3888 16.92H29.2087L32.2988 9.15Z" fill="black"/>
<path d="M47.1452 23.34V9.96L55.2752 21.24L63.4052 9.96V23.34H66.7052V0L55.2752 15.99L43.8452 0V23.34H47.1452Z" fill="black"/>
<path d="M81.7155 8.49C81.7155 10.92 80.3655 12.81 77.7555 12.81H74.2155V4.17H77.7555C80.3655 4.17 81.7155 6.06 81.7155 8.49ZM85.0455 8.49C85.0455 3.81 82.0155 0.84 77.7855 0.84H70.9156V23.34H74.2155V16.14H77.7855C82.0155 16.14 85.0455 13.17 85.0455 8.49Z" fill="black"/>
<path d="M92.5038 0.450001L83.3538 23.34H86.8638L88.2438 19.86H96.7638L98.1438 23.34H101.654L92.5038 0.450001ZM92.5038 9.15L95.5938 16.92H89.4138L92.5038 9.15Z" fill="black"/>
<path d="M121.57 23.91V0.84H118.27V15.72L104.05 0V23.34H107.35V8.19L121.57 23.91Z" fill="black"/>
<path d="M138.539 23.34H141.839V0.84H138.539V10.59H129.059V0.84H125.759V23.34H129.059V13.53H138.539V23.34Z" fill="black"/>
<path d="M153.383 0.450001L144.233 23.34H147.743L149.123 19.86H157.643L159.023 23.34H162.533L153.383 0.450001ZM153.383 9.15L156.473 16.92H150.293L153.383 9.15Z" fill="black"/>
<path d="M170.569 20.58C168.169 20.58 166.999 19.17 166.999 17.37H163.849C163.849 21.09 166.279 23.61 170.569 23.61C174.409 23.61 177.019 20.73 177.019 17.79C177.019 14.79 175.639 13.26 173.179 11.82L170.179 10.05C168.469 9.06 167.419 8.25 167.419 6.45C167.419 4.77 168.739 3.6 170.479 3.6C172.579 3.6 173.329 5.16 173.329 6.33H176.479C176.479 3.03 174.169 0.57 170.659 0.57C166.519 0.57 164.059 3.39 164.059 6.42C164.059 8.76 165.019 10.71 167.599 12.24L171.769 14.7C172.759 15.3 173.689 16.17 173.689 17.7C173.689 19.38 172.519 20.58 170.569 20.58Z" fill="black"/>
<path d="M5.28 30.84H1.98V53.34H5.28V30.84Z" fill="black"/>
<path d="M27 53.91V30.84H23.7V45.72L9.48 30V53.34H12.78V38.19L27 53.91Z" fill="black"/>
<path d="M42.259 34.17V30.84H29.359V34.17H34.159V53.34H37.459V34.17H42.259Z" fill="black"/>
<path d="M44.6362 53.34H56.2463V50.04H47.9362V43.11H54.4762V40.17H47.9362V34.14H56.2463V30.84H44.6362V53.34Z" fill="black"/>
<path d="M80.3433 46.95V40.8H69.2733V43.74H77.2533V46.08C76.3833 48.03 74.1033 50.31 69.9933 50.31C65.4933 50.31 61.7733 46.59 61.7733 42.09C61.7733 37.59 65.4933 33.87 69.9933 33.87C72.9933 33.87 75.1533 35.43 76.5033 37.14L79.1433 35.16C77.0433 32.37 73.7433 30.57 69.9933 30.57C63.5733 30.57 58.4433 35.73 58.4433 42.09C58.4433 48.45 63.5733 53.61 69.9933 53.61C75.1833 53.61 78.6933 50.64 80.3433 46.95Z" fill="black"/>
<path d="M92.1574 37.35C92.1574 39.63 90.9574 40.53 88.5274 40.53H86.6374V34.17H88.5274C90.9574 34.17 92.1574 35.07 92.1574 37.35ZM95.6374 37.35C95.6374 33.27 92.7574 30.84 88.5574 30.84H83.3374V53.34H86.6374V44.04L93.4474 53.34H97.4374L90.3574 43.71C93.5674 43.08 95.6374 40.8 95.6374 37.35Z" fill="black"/>
<path d="M107.123 30.45L97.973 53.34H101.483L102.863 49.86H111.383L112.763 53.34H116.273L107.123 30.45ZM107.123 39.15L110.213 46.92H104.033L107.123 39.15Z" fill="black"/>
<path d="M125.269 34.17C129.799 34.17 133.519 37.59 133.519 42.06C133.519 46.5 129.799 50.01 125.269 50.01H121.969V34.17H125.269ZM118.669 53.34H125.389C131.689 53.34 136.819 48.45 136.819 42.09C136.819 35.76 131.749 30.84 125.389 30.84H118.669V53.34Z" fill="black"/>
<path d="M145.414 30.45L136.264 53.34H139.774L141.154 49.86H149.674L151.054 53.34H154.564L145.414 30.45ZM145.414 39.15L148.504 46.92H142.324L145.414 39.15Z" fill="black"/>
<path d="M162.6 50.58C160.2 50.58 159.03 49.17 159.03 47.37H155.88C155.88 51.09 158.31 53.61 162.6 53.61C166.44 53.61 169.05 50.73 169.05 47.79C169.05 44.79 167.67 43.26 165.21 41.82L162.21 40.05C160.5 39.06 159.45 38.25 159.45 36.45C159.45 34.77 160.77 33.6 162.51 33.6C164.61 33.6 165.36 35.16 165.36 36.33H168.51C168.51 33.03 166.2 30.57 162.69 30.57C158.55 30.57 156.09 33.39 156.09 36.42C156.09 38.76 157.05 40.71 159.63 42.24L163.8 44.7C164.79 45.3 165.72 46.17 165.72 47.7C165.72 49.38 164.55 50.58 162.6 50.58Z" fill="black"/>
<path d="M0 81.34H1.184V75.74H7.392V81.34H8.576V69.34H7.392V74.556H1.184V69.34H0V81.34Z" fill="black"/>
<path d="M11.9965 69.34H10.8125V81.34H11.9965V69.34Z" fill="black"/>
<path d="M20.6184 78.428C20.6184 77.212 20.1384 76.204 18.5384 75.26L16.8104 74.252C15.5784 73.532 15.1944 73.052 15.1944 72.092C15.1944 71.196 15.5144 70.38 17.1304 70.38C18.7144 70.38 19.2424 71.196 19.2424 72.268H20.5224C20.5224 70.508 19.2104 69.196 17.2264 69.196C15.2264 69.196 13.9464 70.428 13.9464 72.076C13.9464 73.324 14.4584 74.172 15.8344 75.004L17.8984 76.236C19.0184 76.908 19.4024 77.452 19.4024 78.38C19.4024 79.436 18.8104 80.316 17.2104 80.316C15.6424 80.316 15.0664 79.5 15.0664 78.428H13.7864C13.7864 80.252 15.0024 81.484 17.2104 81.484C19.2584 81.484 20.6184 80.188 20.6184 78.428Z" fill="black"/>
<path d="M28.0346 69.34H20.9146V70.524H23.8906V81.34H25.0746V70.54H28.0346V69.34Z" fill="black"/>
<path d="M34.2882 68.62L36.7523 66.268L35.7122 65.404L33.5363 67.98L34.2882 68.62ZM34.3042 81.484C37.6962 81.484 40.4482 78.732 40.4482 75.34C40.4482 71.948 37.6962 69.196 34.3042 69.196C30.8962 69.196 28.1443 71.948 28.1443 75.34C28.1443 78.732 30.8962 81.484 34.3042 81.484ZM39.2643 75.34C39.2643 78.044 37.0082 80.3 34.3042 80.3C31.5842 80.3 29.3283 78.044 29.3283 75.34C29.3283 72.636 31.5842 70.38 34.3042 70.38C37.0082 70.38 39.2643 72.636 39.2643 75.34Z" fill="black"/>
<path d="M44.9399 70.524C46.8119 70.524 47.5479 71.58 47.5479 72.812C47.5479 74.092 46.9719 75.228 44.9399 75.228H43.3559V70.524H44.9399ZM48.2199 81.34H49.6919L45.4199 76.396C47.4839 76.236 48.7319 74.94 48.7319 72.812C48.7319 70.636 47.1959 69.34 44.9559 69.34H42.1719V81.34H43.3559V76.412H43.8999L48.2199 81.34Z" fill="black"/>
<path d="M52.1371 69.34H50.9531V81.34H52.1371V69.34Z" fill="black"/>
<path d="M58.295 68.892L53.415 81.34H54.711L55.671 78.86H60.919L61.879 81.34H63.175L58.295 68.892ZM58.295 72.076L60.455 77.676H56.135L58.295 72.076Z" fill="black"/>
<path d="M70.8371 78.428C70.8371 77.212 70.3571 76.204 68.7571 75.26L67.0291 74.252C65.7971 73.532 65.4131 73.052 65.4131 72.092C65.4131 71.196 65.7331 70.38 67.3491 70.38C68.9331 70.38 69.4611 71.196 69.4611 72.268H70.7411C70.7411 70.508 69.4291 69.196 67.4451 69.196C65.4451 69.196 64.1651 70.428 64.1651 72.076C64.1651 73.324 64.6771 74.172 66.0531 75.004L68.1171 76.236C69.2371 76.908 69.6211 77.452 69.6211 78.38C69.6211 79.436 69.0291 80.316 67.4291 80.316C65.8611 80.316 65.2851 79.5 65.2851 78.428H64.0051C64.0051 80.252 65.2211 81.484 67.4291 81.484C69.4771 81.484 70.8371 80.188 70.8371 78.428Z" fill="black"/>
<path d="M87.0628 81.644V69.34H85.8788V78.444L85.8948 78.476L77.7188 68.892V81.34H78.9027V72.076L87.0628 81.644Z" fill="black"/>
<path d="M93.2169 68.892L88.3369 81.34H89.6329L90.5929 78.86H95.8409L96.8009 81.34H98.0969L93.2169 68.892ZM93.2169 72.076L95.3769 77.676H91.0569L93.2169 72.076Z" fill="black"/>
<path d="M102.143 70.524C104.015 70.524 104.751 71.58 104.751 72.812C104.751 74.092 104.175 75.228 102.143 75.228H100.559V70.524H102.143ZM105.423 81.34H106.895L102.623 76.396C104.687 76.236 105.935 74.94 105.935 72.812C105.935 70.636 104.399 69.34 102.159 69.34H99.375V81.34H100.559V76.412H101.103L105.423 81.34Z" fill="black"/>
<path d="M110.924 70.524C112.796 70.524 113.532 71.58 113.532 72.812C113.532 74.092 112.956 75.228 110.924 75.228H109.34V70.524H110.924ZM114.204 81.34H115.676L111.404 76.396C113.468 76.236 114.716 74.94 114.716 72.812C114.716 70.636 113.18 69.34 110.94 69.34H108.156V81.34H109.34V76.412H109.884L114.204 81.34Z" fill="black"/>
<path d="M120.857 68.892L115.978 81.34H117.273L118.233 78.86H123.481L124.441 81.34H125.738L120.857 68.892ZM120.857 72.076L123.018 77.676H118.698L120.857 72.076Z" fill="black"/>
<path d="M131.722 69.34H124.602V70.524H127.578V81.34H128.762V70.54H131.722V69.34Z" fill="black"/>
<path d="M134.168 69.34H132.984V81.34H134.168V69.34Z" fill="black"/>
<path d="M140.31 78.604L136.726 69.34H135.43L140.31 81.788L145.19 69.34H143.894L140.31 78.604Z" fill="black"/>
<path d="M148.857 68.892L143.977 81.34H145.273L146.234 78.86H151.482L152.441 81.34H153.738L148.857 68.892ZM148.857 72.076L151.018 77.676H146.697L148.857 72.076Z" fill="black"/>
<path d="M161.4 78.428C161.4 77.212 160.92 76.204 159.32 75.26L157.592 74.252C156.36 73.532 155.976 73.052 155.976 72.092C155.976 71.196 156.296 70.38 157.912 70.38C159.496 70.38 160.024 71.196 160.024 72.268H161.304C161.304 70.508 159.992 69.196 158.008 69.196C156.008 69.196 154.728 70.428 154.728 72.076C154.728 73.324 155.24 74.172 156.616 75.004L158.68 76.236C159.8 76.908 160.184 77.452 160.184 78.38C160.184 79.436 159.592 80.316 157.992 80.316C156.424 80.316 155.848 79.5 155.848 78.428H154.568C154.568 80.252 155.784 81.484 157.992 81.484C160.04 81.484 161.4 80.188 161.4 78.428Z" fill="black"/>
<path d="M168.281 81.34H174.473V80.156H169.465V75.692H173.529V74.508H169.465V70.524H174.473V69.34H168.281V81.34Z" fill="black"/>
<path d="M1.184 89.34H0V101.34H1.184V89.34Z" fill="black"/>
<path d="M12.7659 101.644V89.34H11.5819V98.444L11.5979 98.476L3.42188 88.892V101.34H4.60588V92.076L12.7659 101.644Z" fill="black"/>
<path d="M21.144 89.34H14.024V90.524H17V101.34H18.184V90.54H21.144V89.34Z" fill="black"/>
<path d="M22.4062 101.34H28.5982V100.156H23.5903V95.692H27.6543V94.508H23.5903V90.524H28.5982V89.34H22.4062V101.34Z" fill="black"/>
<path d="M33.2055 90.524C35.0775 90.524 35.8135 91.58 35.8135 92.812C35.8135 94.092 35.2375 95.228 33.2055 95.228H31.6215V90.524H33.2055ZM36.4855 101.34H37.9575L33.6855 96.396C35.7495 96.236 36.9975 94.94 36.9975 92.812C36.9975 90.636 35.4615 89.34 33.2215 89.34H30.4375V101.34H31.6215V96.412H32.1655L36.4855 101.34Z" fill="black"/>
<path d="M43.1388 88.892L38.2588 101.34H39.5547L40.5148 98.86H45.7627L46.7228 101.34H48.0187L43.1388 88.892ZM43.1388 92.076L45.2988 97.676H40.9787L43.1388 92.076Z" fill="black"/>
<path d="M54.0034 89.34H46.8834V90.524H49.8594V101.34H51.0434V90.54H54.0034V89.34Z" fill="black"/>
<path d="M56.4496 89.34H55.2656V101.34H56.4496V89.34Z" fill="black"/>
<path d="M62.5915 98.604L59.0075 89.34H57.7115L62.5915 101.788L67.4715 89.34H66.1755L62.5915 98.604Z" fill="black"/>
<path d="M71.1387 88.892L66.2588 101.34H67.5547L68.5147 98.86H73.7627L74.7227 101.34H76.0188L71.1387 88.892ZM71.1387 92.076L73.2988 97.676H68.9788L71.1387 92.076Z" fill="black"/>
<path d="M83.6809 98.428C83.6809 97.212 83.2009 96.204 81.6009 95.26L79.8729 94.252C78.6409 93.532 78.2569 93.052 78.2569 92.092C78.2569 91.196 78.5769 90.38 80.1929 90.38C81.7769 90.38 82.3049 91.196 82.3049 92.268H83.5849C83.5849 90.508 82.2729 89.196 80.2889 89.196C78.2889 89.196 77.0089 90.428 77.0089 92.076C77.0089 93.324 77.5209 94.172 78.8969 95.004L80.9609 96.236C82.0809 96.908 82.4649 97.452 82.4649 98.38C82.4649 99.436 81.8729 100.316 80.2729 100.316C78.7049 100.316 78.1289 99.5 78.1289 98.428H76.8489C76.8489 100.252 78.0649 101.484 80.2729 101.484C82.3209 101.484 83.6809 100.188 83.6809 98.428Z" fill="black"/>
<path d="M84.0295 102.924L84.7175 103.788C85.4855 103.244 85.9655 102.556 85.9655 101.404V99.676H84.7815V101.404C84.7815 102.076 84.6055 102.492 84.0295 102.924Z" fill="black"/>
<path d="M98.2886 101.484C101.681 101.484 104.433 98.732 104.433 95.34C104.433 91.948 101.681 89.196 98.2886 89.196C94.8806 89.196 92.1286 91.948 92.1286 95.34C92.1286 98.732 94.8806 101.484 98.2886 101.484ZM103.249 95.34C103.249 98.044 100.993 100.3 98.2886 100.3C95.5686 100.3 93.3126 98.044 93.3126 95.34C93.3126 92.636 95.5686 90.38 98.2886 90.38C100.993 90.38 103.249 92.636 103.249 95.34Z" fill="black"/>
<path d="M115.5 101.644V89.34H114.316V98.444L114.332 98.476L106.156 88.892V101.34H107.34V92.076L115.5 101.644Z" fill="black"/>
<path d="M122.859 101.34H129.051V100.156H124.043V95.692H128.107V94.508H124.043V90.524H129.051V89.34H122.859V101.34Z" fill="black"/>
<path d="M141.664 101.484C145.056 101.484 147.808 98.732 147.808 95.34C147.808 91.948 145.056 89.196 141.664 89.196C138.256 89.196 135.504 91.948 135.504 95.34C135.504 98.732 138.256 101.484 141.664 101.484ZM146.624 95.34C146.624 98.044 144.368 100.3 141.664 100.3C138.944 100.3 136.688 98.044 136.688 95.34C136.688 92.636 138.944 90.38 141.664 90.38C144.368 90.38 146.624 92.636 146.624 95.34Z" fill="black"/>
<path d="M149.531 101.34H150.715V96.044H154.779V94.86H150.715V90.524H155.723V89.34H149.531V101.34Z" fill="black"/>
<path d="M157.484 101.34H158.668V96.044H162.732V94.86H158.668V90.524H163.676V89.34H157.484V101.34Z" fill="black"/>
<path d="M163.172 101.34H164.356V99.676H163.172V101.34Z" fill="black"/>
</svg>
