<svg width="170" height="105" viewBox="0 0 170 105" fill="none" xmlns="http://www.w3.org/2000/svg">
<path d="M7.11964 3.72C11.6496 3.72 15.3696 7.14 15.3696 11.61C15.3696 16.05 11.6496 19.56 7.11964 19.56H3.81963V3.72H7.11964ZM0.519635 22.89H7.23963C13.5396 22.89 18.6696 18 18.6696 11.64C18.6696 5.31 13.5996 0.389999 7.23963 0.389999H0.519635V22.89Z" fill="black"/>
<path d="M24.7083 0.389999H21.4083V22.89H24.7083V0.389999Z" fill="black"/>
<path d="M49.6153 16.5V10.35H38.5453V13.29H46.5253V15.63C45.6553 17.58 43.3753 19.86 39.2653 19.86C34.7653 19.86 31.0453 16.14 31.0453 11.64C31.0453 7.14 34.7653 3.42 39.2653 3.42C42.2653 3.42 44.4253 4.98 45.7753 6.69L48.4153 4.71C46.3153 1.92 43.0153 0.119998 39.2653 0.119998C32.8453 0.119998 27.7153 5.28 27.7153 11.64C27.7153 18 32.8453 23.16 39.2653 23.16C44.4553 23.16 47.9653 20.19 49.6153 16.5Z" fill="black"/>
<path d="M55.9095 0.389999H52.6095V22.89H55.9095V0.389999Z" fill="black"/>
<path d="M71.1795 3.72V0.389999H58.2795V3.72H63.0795V22.89H66.3795V3.72H71.1795Z" fill="black"/>
<path d="M78.5044 0L69.3544 22.89H72.8644L74.2444 19.41H82.7644L84.1444 22.89H87.6544L78.5044 0ZM78.5044 8.7L81.5944 16.47H75.4144L78.5044 8.7Z" fill="black"/>
<path d="M90.0509 22.89H99.9809V19.59H93.3509V0.389999H90.0509V22.89Z" fill="black"/>
<path d="M0.519635 52.89H12.1296V49.59H3.81963V42.66H10.3596V39.72H3.81963V33.69H12.1296V30.39H0.519635V52.89Z" fill="black"/>
<path d="M17.6426 52.89L22.6526 44.67L27.6326 52.89H31.2926L24.4826 41.64L31.2926 30.39H27.6326L22.6526 38.61L17.6726 30.39H13.9826L20.8226 41.64L13.9826 52.89H17.6426Z" fill="black"/>
<path d="M44.4544 38.04C44.4544 40.47 43.1044 42.36 40.4944 42.36H36.9544V33.72H40.4944C43.1044 33.72 44.4544 35.61 44.4544 38.04ZM47.7844 38.04C47.7844 33.36 44.7544 30.39 40.5244 30.39H33.6544V52.89H36.9544V45.69H40.5244C44.7544 45.69 47.7844 42.72 47.7844 38.04Z" fill="black"/>
<path d="M50.295 52.89H61.905V49.59H53.595V42.66H60.135V39.72H53.595V33.69H61.905V30.39H50.295V52.89Z" fill="black"/>
<path d="M74.408 36.9C74.408 39.18 73.208 40.08 70.778 40.08H68.888V33.72H70.778C73.208 33.72 74.408 34.62 74.408 36.9ZM77.888 36.9C77.888 32.82 75.008 30.39 70.808 30.39H65.588V52.89H68.888V43.59L75.698 52.89H79.688L72.608 43.26C75.818 42.63 77.888 40.35 77.888 36.9Z" fill="black"/>
<path d="M85.3235 30.39H82.0235V52.89H85.3235V30.39Z" fill="black"/>
<path d="M89.5235 52.89H101.134V49.59H92.8235V42.66H99.3635V39.72H92.8235V33.69H101.134V30.39H89.5235V52.89Z" fill="black"/>
<path d="M122.337 53.46V30.39H119.037V45.27L104.817 29.55V52.89H108.117V37.74L122.337 53.46Z" fill="black"/>
<path d="M125.625 41.64C125.625 48 130.755 53.16 137.175 53.16C141.345 53.16 145.036 50.91 147.076 47.58L144.255 45.72C142.815 48.15 140.145 49.86 137.175 49.86C132.645 49.86 128.925 46.11 128.925 41.64C128.925 37.17 132.645 33.42 137.175 33.42C140.145 33.42 142.815 35.13 144.255 37.56L147.076 35.7C145.036 32.37 141.345 30.12 137.175 30.12C130.755 30.12 125.625 35.28 125.625 41.64Z" fill="black"/>
<path d="M150.08 52.89H161.69V49.59H153.38V42.66H159.92V39.72H153.38V33.69H161.69V30.39H150.08V52.89Z" fill="black"/>
<path d="M6.16 84.034C8.592 84.034 10.688 82.61 11.68 80.562L10.592 80.05C9.792 81.698 8.096 82.85 6.16 82.85C3.424 82.85 1.184 80.594 1.184 77.89C1.184 75.186 3.424 72.93 6.16 72.93C8.096 72.93 9.792 74.066 10.592 75.714L11.68 75.218C10.688 73.17 8.592 71.746 6.16 71.746C2.736 71.746 0 74.498 0 77.89C0 81.282 2.736 84.034 6.16 84.034Z" fill="black"/>
<path d="M16.807 71.442L11.927 83.89H13.223L14.183 81.41H19.431L20.391 83.89H21.687L16.807 71.442ZM16.807 74.626L18.967 80.226H14.647L16.807 74.626Z" fill="black"/>
<path d="M32.3091 84.194V71.89H31.1251V80.994L31.1411 81.026L22.9651 71.442V83.89H24.1491V74.626L32.3091 84.194Z" fill="black"/>
<path d="M38.4632 71.442L33.5832 83.89H34.8792L35.8392 81.41H41.0872L42.0472 83.89H43.3433L38.4632 71.442ZM38.4632 74.626L40.6232 80.226H36.3032L38.4632 74.626Z" fill="black"/>
<path d="M45.8054 71.89H44.6214V83.89H45.8054V71.89Z" fill="black"/>
<path d="M54.4272 80.978C54.4272 79.762 53.9473 78.754 52.3473 77.81L50.6193 76.802C49.3873 76.082 49.0033 75.602 49.0033 74.642C49.0033 73.746 49.3233 72.93 50.9393 72.93C52.5233 72.93 53.0513 73.746 53.0513 74.818H54.3312C54.3312 73.058 53.0193 71.746 51.0353 71.746C49.0353 71.746 47.7552 72.978 47.7552 74.626C47.7552 75.874 48.2672 76.722 49.6432 77.554L51.7072 78.786C52.8272 79.458 53.2113 80.002 53.2113 80.93C53.2113 81.986 52.6192 82.866 51.0192 82.866C49.4512 82.866 48.8753 82.05 48.8753 80.978H47.5952C47.5952 82.802 48.8112 84.034 51.0192 84.034C53.0672 84.034 54.4272 82.738 54.4272 80.978Z" fill="black"/>
<path d="M64.7009 73.074C66.5729 73.074 67.1009 74.13 67.1009 75.474C67.1009 76.818 66.5729 77.89 64.7009 77.89H62.4929V73.074H64.7009ZM64.7009 79.074C66.9729 79.074 68.2849 77.65 68.2849 75.474C68.2849 73.298 66.9729 71.89 64.7009 71.89H61.3089V83.89H62.4929V79.074H64.7009Z" fill="black"/>
<path d="M73.0925 73.074C74.9645 73.074 75.7005 74.13 75.7005 75.362C75.7005 76.642 75.1245 77.778 73.0925 77.778H71.5085V73.074H73.0925ZM76.3725 83.89H77.8445L73.5725 78.946C75.6365 78.786 76.8845 77.49 76.8845 75.362C76.8845 73.186 75.3485 71.89 73.1085 71.89H70.3245V83.89H71.5085V78.962H72.0525L76.3725 83.89Z" fill="black"/>
<path d="M84.0971 71.17L86.5611 68.818L85.5211 67.954L83.3451 70.53L84.0971 71.17ZM84.1131 84.034C87.5051 84.034 90.2571 81.282 90.2571 77.89C90.2571 74.498 87.5051 71.746 84.1131 71.746C80.7051 71.746 77.9531 74.498 77.9531 77.89C77.9531 81.282 80.7051 84.034 84.1131 84.034ZM89.0731 77.89C89.0731 80.594 86.8171 82.85 84.1131 82.85C81.3931 82.85 79.1371 80.594 79.1371 77.89C79.1371 75.186 81.3931 72.93 84.1131 72.93C86.8171 72.93 89.0731 75.186 89.0731 77.89Z" fill="black"/>
<path d="M95.3727 73.074C97.2447 73.074 97.7728 74.13 97.7728 75.474C97.7728 76.818 97.2447 77.89 95.3727 77.89H93.1647V73.074H95.3727ZM95.3727 79.074C97.6447 79.074 98.9567 77.65 98.9567 75.474C98.9567 73.298 97.6447 71.89 95.3727 71.89H91.9808V83.89H93.1647V79.074H95.3727Z" fill="black"/>
<path d="M103.764 73.074C105.636 73.074 106.372 74.13 106.372 75.362C106.372 76.642 105.796 77.778 103.764 77.778H102.18V73.074H103.764ZM107.044 83.89H108.516L104.244 78.946C106.308 78.786 107.556 77.49 107.556 75.362C107.556 73.186 106.02 71.89 103.78 71.89H100.996V83.89H102.18V78.962H102.724L107.044 83.89Z" fill="black"/>
<path d="M110.962 71.89H109.778V83.89H110.962V71.89Z" fill="black"/>
<path d="M118.691 84.034C122.083 84.034 124.835 81.282 124.835 77.89C124.835 74.498 122.083 71.746 118.691 71.746C115.283 71.746 112.531 74.498 112.531 77.89C112.531 81.282 115.283 84.034 118.691 84.034ZM123.651 77.89C123.651 80.594 121.395 82.85 118.691 82.85C115.971 82.85 113.715 80.594 113.715 77.89C113.715 75.186 115.971 72.93 118.691 72.93C121.395 72.93 123.651 75.186 123.651 77.89Z" fill="black"/>
<path d="M132.943 80.978C132.943 79.762 132.463 78.754 130.863 77.81L129.135 76.802C127.903 76.082 127.519 75.602 127.519 74.642C127.519 73.746 127.839 72.93 129.455 72.93C131.039 72.93 131.567 73.746 131.567 74.818H132.847C132.847 73.058 131.535 71.746 129.551 71.746C127.551 71.746 126.271 72.978 126.271 74.626C126.271 75.874 126.783 76.722 128.159 77.554L130.223 78.786C131.343 79.458 131.727 80.002 131.727 80.93C131.727 81.986 131.135 82.866 129.535 82.866C127.967 82.866 127.391 82.05 127.391 80.978H126.111C126.111 82.802 127.327 84.034 129.535 84.034C131.583 84.034 132.943 82.738 132.943 80.978Z" fill="black"/>
<path d="M139.824 83.89H146.016V82.706H141.008V78.242H145.072V77.058H141.008V73.074H146.016V71.89H139.824V83.89Z" fill="black"/>
<path d="M1.696 91.89H0.512V103.89H1.696V91.89Z" fill="black"/>
<path d="M13.2779 104.194V91.89H12.0939V100.994L12.1099 101.026L3.93388 91.442V103.89H5.11788V94.626L13.2779 104.194Z" fill="black"/>
<path d="M21.656 91.89H14.536V93.074H17.512V103.89H18.696V93.09H21.656V91.89Z" fill="black"/>
<path d="M22.9182 103.89H29.1103V102.706H24.1022V98.242H28.1663V97.058H24.1022V93.074H29.1103V91.89H22.9182V103.89Z" fill="black"/>
<path d="M33.7175 93.074C35.5895 93.074 36.3255 94.13 36.3255 95.362C36.3255 96.642 35.7495 97.778 33.7175 97.778H32.1335V93.074H33.7175ZM36.9975 103.89H38.4695L34.1975 98.946C36.2615 98.786 37.5095 97.49 37.5095 95.362C37.5095 93.186 35.9735 91.89 33.7335 91.89H30.9495V103.89H32.1335V98.962H32.6775L36.9975 103.89Z" fill="black"/>
<path d="M39.7308 103.89H40.9147V98.594H44.9788V97.41H40.9147V93.074H45.9227V91.89H39.7308V103.89Z" fill="black"/>
<path d="M50.3226 91.442L45.4426 103.89H46.7386L47.6986 101.41H52.9466L53.9066 103.89H55.2026L50.3226 91.442ZM50.3226 94.626L52.4826 100.226H48.1626L50.3226 94.626Z" fill="black"/>
<path d="M61.3319 104.034C63.7639 104.034 65.8599 102.61 66.8519 100.562L65.7639 100.05C64.9639 101.698 63.2679 102.85 61.3319 102.85C58.5959 102.85 56.3559 100.594 56.3559 97.89C56.3559 95.186 58.5959 92.93 61.3319 92.93C63.2679 92.93 64.9639 94.066 65.7639 95.714L66.8519 95.218C65.8599 93.17 63.7639 91.746 61.3319 91.746C57.9079 91.746 55.1719 94.498 55.1719 97.89C55.1719 101.282 57.9079 104.034 61.3319 104.034Z" fill="black"/>
<path d="M68.3714 103.89H74.5634V102.706H69.5554V98.242H73.6194V97.058H69.5554V93.074H74.5634V91.89H68.3714V103.89Z" fill="black"/>
<path d="M82.7866 100.978C82.7866 99.762 82.3066 98.754 80.7066 97.81L78.9786 96.802C77.7466 96.082 77.3626 95.602 77.3626 94.642C77.3626 93.746 77.6826 92.93 79.2986 92.93C80.8826 92.93 81.4106 93.746 81.4106 94.818H82.6906C82.6906 93.058 81.3786 91.746 79.3946 91.746C77.3946 91.746 76.1146 92.978 76.1146 94.626C76.1146 95.874 76.6266 96.722 78.0026 97.554L80.0666 98.786C81.1866 99.458 81.5706 100.002 81.5706 100.93C81.5706 101.986 80.9786 102.866 79.3786 102.866C77.8106 102.866 77.2346 102.05 77.2346 100.978H75.9546C75.9546 102.802 77.1706 104.034 79.3786 104.034C81.4266 104.034 82.7866 102.738 82.7866 100.978Z" fill="black"/>
<path d="M93.3323 102.706H90.8522V93.074H93.3323C95.8763 93.074 98.1643 95.026 98.1643 97.858C98.1643 100.818 95.8763 102.706 93.3323 102.706ZM89.6683 103.89H93.3962C96.7562 103.89 99.3483 101.17 99.3483 97.858C99.3483 94.562 96.7882 91.922 93.3802 91.89H89.6683V103.89Z" fill="black"/>
<path d="M100.95 103.89H107.142V102.706H102.133V98.242H106.198V97.058H102.133V93.074H107.142V91.89H100.95V103.89Z" fill="black"/>
<path d="M115.29 103.89V95.49L120.202 102.77L125.114 95.49V103.89H126.298V91.442L120.202 100.754L114.106 91.442V103.89H115.29Z" fill="black"/>
<path d="M132.463 91.442L127.583 103.89H128.879L129.839 101.41H135.087L136.047 103.89H137.343L132.463 91.442ZM132.463 94.626L134.623 100.226H130.303L132.463 94.626Z" fill="black"/>
<path d="M141.389 93.074C143.261 93.074 143.997 94.13 143.997 95.362C143.997 96.642 143.421 97.778 141.389 97.778H139.805V93.074H141.389ZM144.669 103.89H146.141L141.869 98.946C143.933 98.786 145.181 97.49 145.181 95.362C145.181 93.186 143.645 91.89 141.405 91.89H138.621V103.89H139.805V98.962H140.349L144.669 103.89Z" fill="black"/>
<path d="M152.41 104.034C154.842 104.034 156.938 102.61 157.93 100.562L156.842 100.05C156.042 101.698 154.346 102.85 152.41 102.85C149.674 102.85 147.434 100.594 147.434 97.89C147.434 95.186 149.674 92.93 152.41 92.93C154.346 92.93 156.042 94.066 156.842 95.714L157.93 95.218C156.938 93.17 154.842 91.746 152.41 91.746C148.986 91.746 146.25 94.498 146.25 97.89C146.25 101.282 148.986 104.034 152.41 104.034Z" fill="black"/>
<path d="M163.057 91.442L158.177 103.89H159.473L160.433 101.41H165.681L166.641 103.89H167.937L163.057 91.442ZM163.057 94.626L165.217 100.226H160.897L163.057 94.626Z" fill="black"/>
<path d="M168.543 103.89H169.727V102.226H168.543V103.89Z" fill="black"/>
</svg>
