<svg width="217" height="101" viewBox="0 0 217 101" fill="none" xmlns="http://www.w3.org/2000/svg">
<path d="M8.556 3.72C13.086 3.72 16.806 7.14 16.806 11.61C16.806 16.05 13.086 19.56 8.556 19.56H5.256V3.72H8.556ZM1.956 22.89H8.676C14.976 22.89 20.106 18 20.106 11.64C20.106 5.31 15.036 0.389999 8.676 0.389999H1.956V22.89Z" fill="black"/>
<path d="M28.7005 0L19.5505 22.89H23.0605L24.4405 19.41H32.9605L34.3405 22.89H37.8505L28.7005 0ZM28.7005 8.7L31.7905 16.47H25.6105L28.7005 8.7Z" fill="black"/>
<path d="M48.6217 3.72V0.389999H35.7217V3.72H40.5217V22.89H43.8217V3.72H48.6217Z" fill="black"/>
<path d="M55.9466 0L46.7966 22.89H50.3066L51.6866 19.41H60.2066L61.5866 22.89H65.0966L55.9466 0ZM55.9466 8.7L59.0366 16.47H52.8566L55.9466 8.7Z" fill="black"/>
<path d="M5.256 30.39H1.956V52.89H5.256V30.39Z" fill="black"/>
<path d="M26.976 53.46V30.39H23.676V45.27L9.456 29.55V52.89H12.756V37.74L26.976 53.46Z" fill="black"/>
<path d="M42.235 33.72V30.39H29.335V33.72H34.135V52.89H37.435V33.72H42.235Z" fill="black"/>
<path d="M44.6123 52.89H56.2223V49.59H47.9123V42.66H54.4523V39.72H47.9123V33.69H56.2223V30.39H44.6123V52.89Z" fill="black"/>
<path d="M59.9052 52.89H69.8352V49.59H63.2052V30.39H59.9052V52.89Z" fill="black"/>
<path d="M72.7958 52.89H82.7258V49.59H76.0958V30.39H72.7958V52.89Z" fill="black"/>
<path d="M88.9865 30.39H85.6865V52.89H88.9865V30.39Z" fill="black"/>
<path d="M113.894 46.5V40.35H102.824V43.29H110.804V45.63C109.934 47.58 107.654 49.86 103.544 49.86C99.0435 49.86 95.3235 46.14 95.3235 41.64C95.3235 37.14 99.0435 33.42 103.544 33.42C106.544 33.42 108.703 34.98 110.053 36.69L112.694 34.71C110.594 31.92 107.294 30.12 103.544 30.12C97.1235 30.12 91.9935 35.28 91.9935 41.64C91.9935 48 97.1235 53.16 103.544 53.16C108.734 53.16 112.244 50.19 113.894 46.5Z" fill="black"/>
<path d="M116.888 52.89H128.498V49.59H120.188V42.66H126.728V39.72H120.188V33.69H128.498V30.39H116.888V52.89Z" fill="black"/>
<path d="M149.701 53.46V30.39H146.401V45.27L132.181 29.55V52.89H135.481V37.74L149.701 53.46Z" fill="black"/>
<path d="M152.99 41.64C152.99 48 158.12 53.16 164.54 53.16C168.71 53.16 172.4 50.91 174.44 47.58L171.62 45.72C170.18 48.15 167.51 49.86 164.54 49.86C160.01 49.86 156.29 46.11 156.29 41.64C156.29 37.17 160.01 33.42 164.54 33.42C167.51 33.42 170.18 35.13 171.62 37.56L174.44 35.7C172.4 32.37 168.71 30.12 164.54 30.12C158.12 30.12 152.99 35.28 152.99 41.64Z" fill="black"/>
<path d="M177.444 52.89H189.054V49.59H180.744V42.66H187.284V39.72H180.744V33.69H189.054V30.39H177.444V52.89Z" fill="black"/>
<path d="M6.624 80.034C9.056 80.034 11.152 78.61 12.144 76.562L11.056 76.05C10.256 77.698 8.56 78.85 6.624 78.85C3.888 78.85 1.648 76.594 1.648 73.89C1.648 71.186 3.888 68.93 6.624 68.93C8.56 68.93 10.256 70.066 11.056 71.714L12.144 71.218C11.152 69.17 9.056 67.746 6.624 67.746C3.2 67.746 0.464 70.498 0.464 73.89C0.464 77.282 3.2 80.034 6.624 80.034Z" fill="black"/>
<path d="M19.3115 80.034C22.7035 80.034 25.4555 77.282 25.4555 73.89C25.4555 70.498 22.7035 67.746 19.3115 67.746C15.9035 67.746 13.1515 70.498 13.1515 73.89C13.1515 77.282 15.9035 80.034 19.3115 80.034ZM24.2715 73.89C24.2715 76.594 22.0155 78.85 19.3115 78.85C16.5915 78.85 14.3355 76.594 14.3355 73.89C14.3355 71.186 16.5915 68.93 19.3115 68.93C22.0155 68.93 24.2715 71.186 24.2715 73.89Z" fill="black"/>
<path d="M36.5231 80.194V67.89H35.3391V76.994L35.3551 77.026L27.1791 67.442V79.89H28.3631V70.626L36.5231 80.194Z" fill="black"/>
<path d="M38.7573 79.89H39.9412V74.29H46.1493V79.89H47.3333V67.89H46.1493V73.106H39.9412V67.89H38.7573V79.89Z" fill="black"/>
<path d="M49.5698 79.89H55.7617V78.706H50.7537V74.242H54.8177V73.058H50.7537V69.074H55.7617V67.89H49.5698V79.89Z" fill="black"/>
<path d="M62.9365 80.034C65.3685 80.034 67.4645 78.61 68.4565 76.562L67.3685 76.05C66.5685 77.698 64.8725 78.85 62.9365 78.85C60.2005 78.85 57.9605 76.594 57.9605 73.89C57.9605 71.186 60.2005 68.93 62.9365 68.93C64.8725 68.93 66.5685 70.066 67.3685 71.714L68.4565 71.218C67.4645 69.17 65.3685 67.746 62.9365 67.746C59.5125 67.746 56.7765 70.498 56.7765 73.89C56.7765 77.282 59.5125 80.034 62.9365 80.034Z" fill="black"/>
<path d="M71.16 67.89H69.976V79.89H71.16V67.89Z" fill="black"/>
<path d="M74.5819 79.89V71.49L79.4939 78.77L84.4059 71.49V79.89H85.5899V67.442L79.4939 76.754L73.3979 67.442V79.89H74.5819Z" fill="black"/>
<path d="M87.8354 79.89H94.0274V78.706H89.0194V74.242H93.0834V73.058H89.0194V69.074H94.0274V67.89H87.8354V79.89Z" fill="black"/>
<path d="M105.211 80.194V67.89H104.027V76.994L104.043 77.026L95.8666 67.442V79.89H97.0506V70.626L105.211 80.194Z" fill="black"/>
<path d="M113.589 67.89H106.469V69.074H109.445V79.89H110.629V69.09H113.589V67.89Z" fill="black"/>
<path d="M119.858 80.034C123.25 80.034 126.002 77.282 126.002 73.89C126.002 70.498 123.25 67.746 119.858 67.746C116.45 67.746 113.698 70.498 113.698 73.89C113.698 77.282 116.45 80.034 119.858 80.034ZM124.818 73.89C124.818 76.594 122.562 78.85 119.858 78.85C117.138 78.85 114.882 76.594 114.882 73.89C114.882 71.186 117.138 68.93 119.858 68.93C122.562 68.93 124.818 71.186 124.818 73.89Z" fill="black"/>
<path d="M125.037 81.474L125.725 82.338C126.493 81.794 126.973 81.106 126.973 79.954V78.226H125.789V79.954C125.789 80.626 125.613 81.042 125.037 81.474Z" fill="black"/>
<path d="M139.296 80.034C141.728 80.034 143.824 78.61 144.816 76.562L143.728 76.05C142.928 77.698 141.232 78.85 139.296 78.85C136.56 78.85 134.32 76.594 134.32 73.89C134.32 71.186 136.56 68.93 139.296 68.93C141.232 68.93 142.928 70.066 143.728 71.714L144.816 71.218C143.824 69.17 141.728 67.746 139.296 67.746C135.872 67.746 133.136 70.498 133.136 73.89C133.136 77.282 135.872 80.034 139.296 80.034Z" fill="black"/>
<path d="M151.983 80.034C155.375 80.034 158.127 77.282 158.127 73.89C158.127 70.498 155.375 67.746 151.983 67.746C148.575 67.746 145.823 70.498 145.823 73.89C145.823 77.282 148.575 80.034 151.983 80.034ZM156.943 73.89C156.943 76.594 154.687 78.85 151.983 78.85C149.263 78.85 147.007 76.594 147.007 73.89C147.007 71.186 149.263 68.93 151.983 68.93C154.687 68.93 156.943 71.186 156.943 73.89Z" fill="black"/>
<path d="M169.195 80.194V67.89H168.011V76.994L168.027 77.026L159.851 67.442V79.89H161.035V70.626L169.195 80.194Z" fill="black"/>
<path d="M177.573 67.89H170.453V69.074H173.429V79.89H174.613V69.09H177.573V67.89Z" fill="black"/>
<path d="M181.603 69.074C183.475 69.074 184.211 70.13 184.211 71.362C184.211 72.642 183.635 73.778 181.603 73.778H180.019V69.074H181.603ZM184.883 79.89H186.355L182.083 74.946C184.147 74.786 185.395 73.49 185.395 71.362C185.395 69.186 183.859 67.89 181.619 67.89H178.835V79.89H180.019V74.962H180.563L184.883 79.89Z" fill="black"/>
<path d="M192.624 80.034C196.016 80.034 198.768 77.282 198.768 73.89C198.768 70.498 196.016 67.746 192.624 67.746C189.216 67.746 186.464 70.498 186.464 73.89C186.464 77.282 189.216 80.034 192.624 80.034ZM197.584 73.89C197.584 76.594 195.328 78.85 192.624 78.85C189.904 78.85 187.648 76.594 187.648 73.89C187.648 71.186 189.904 68.93 192.624 68.93C195.328 68.93 197.584 71.186 197.584 73.89Z" fill="black"/>
<path d="M200.492 79.89H205.804V78.706H201.676V67.89H200.492V79.89Z" fill="black"/>
<path d="M207.523 79.89H213.715V78.706H208.707V74.242H212.771V73.058H208.707V69.074H213.715V67.89H207.523V79.89Z" fill="black"/>
<path d="M214.146 81.474L214.834 82.338C215.602 81.794 216.082 81.106 216.082 79.954V78.226H214.898V79.954C214.898 80.626 214.722 81.042 214.146 81.474Z" fill="black"/>
<path d="M7.12 87.89H0V89.074H2.976V99.89H4.16V89.09H7.12V87.89Z" fill="black"/>
<path d="M8.38225 99.89H14.5743V98.706H9.56625V94.242H13.6303V93.058H9.56625V89.074H14.5743V87.89H8.38225V99.89Z" fill="black"/>
<path d="M22.7975 96.978C22.7975 95.762 22.3175 94.754 20.7175 93.81L18.9895 92.802C17.7575 92.082 17.3735 91.602 17.3735 90.642C17.3735 89.746 17.6935 88.93 19.3095 88.93C20.8935 88.93 21.4215 89.746 21.4215 90.818H22.7015C22.7015 89.058 21.3895 87.746 19.4055 87.746C17.4055 87.746 16.1255 88.978 16.1255 90.626C16.1255 91.874 16.6375 92.722 18.0135 93.554L20.0775 94.786C21.1975 95.458 21.5815 96.002 21.5815 96.93C21.5815 97.986 20.9895 98.866 19.3895 98.866C17.8215 98.866 17.2455 98.05 17.2455 96.978H15.9655C15.9655 98.802 17.1815 100.034 19.3895 100.034C21.4375 100.034 22.7975 98.738 22.7975 96.978Z" fill="black"/>
<path d="M30.2138 87.89H23.0938V89.074H26.0697V99.89H27.2537V89.09H30.2138V87.89Z" fill="black"/>
<path d="M31.476 99.89H37.668V98.706H32.66V94.242H36.724V93.058H32.66V89.074H37.668V87.89H31.476V99.89Z" fill="black"/>
<path d="M45.8913 96.978C45.8913 95.762 45.4112 94.754 43.8112 93.81L42.0833 92.802C40.8513 92.082 40.4673 91.602 40.4673 90.642C40.4673 89.746 40.7873 88.93 42.4033 88.93C43.9873 88.93 44.5153 89.746 44.5153 90.818H45.7952C45.7952 89.058 44.4832 87.746 42.4992 87.746C40.4992 87.746 39.2192 88.978 39.2192 90.626C39.2192 91.874 39.7313 92.722 41.1073 93.554L43.1712 94.786C44.2912 95.458 44.6753 96.002 44.6753 96.93C44.6753 97.986 44.0832 98.866 42.4832 98.866C40.9152 98.866 40.3392 98.05 40.3392 96.978H39.0592C39.0592 98.802 40.2752 100.034 42.4832 100.034C44.5312 100.034 45.8913 98.738 45.8913 96.978Z" fill="black"/>
<path d="M52.7729 99.89H58.9649V98.706H53.9569V94.242H58.0209V93.058H53.9569V89.074H58.9649V87.89H52.7729V99.89Z" fill="black"/>
<path d="M67.1131 87.89H65.9291V99.89H67.1131V87.89Z" fill="black"/>
<path d="M78.695 100.194V87.89H77.511V96.994L77.527 97.026L69.351 87.442V99.89H70.535V90.626L78.695 100.194Z" fill="black"/>
<path d="M87.3131 96.978C87.3131 95.762 86.8331 94.754 85.2331 93.81L83.5051 92.802C82.2731 92.082 81.8891 91.602 81.8891 90.642C81.8891 89.746 82.2091 88.93 83.8251 88.93C85.4091 88.93 85.9371 89.746 85.9371 90.818H87.2171C87.2171 89.058 85.9051 87.746 83.9211 87.746C81.9211 87.746 80.6411 88.978 80.6411 90.626C80.6411 91.874 81.1531 92.722 82.5291 93.554L84.5931 94.786C85.7131 95.458 86.0971 96.002 86.0971 96.93C86.0971 97.986 85.5051 98.866 83.9051 98.866C82.3371 98.866 81.7611 98.05 81.7611 96.978H80.4811C80.4811 98.802 81.6971 100.034 83.9051 100.034C85.9531 100.034 87.3131 98.738 87.3131 96.978Z" fill="black"/>
<path d="M90.2538 87.89H89.0697V99.89H90.2538V87.89Z" fill="black"/>
<path d="M103.503 96.482V93.282H98.0794V94.466H102.319V96.242C101.983 97.346 100.431 98.85 97.9834 98.85C95.2634 98.85 93.0074 96.594 93.0074 93.89C93.0074 91.186 95.2634 88.93 97.9834 88.93C99.5994 88.93 101.039 89.714 101.935 90.914L102.879 90.194C101.759 88.706 99.9834 87.746 97.9834 87.746C94.5754 87.746 91.8234 90.498 91.8234 93.89C91.8234 97.282 94.5754 100.034 97.9834 100.034C101.007 100.034 102.847 98.29 103.503 96.482Z" fill="black"/>
<path d="M105.226 99.89H106.41V94.29H112.618V99.89H113.802V87.89H112.618V93.106H106.41V87.89H105.226V99.89Z" fill="black"/>
<path d="M122.183 87.89H115.062V89.074H118.038V99.89H119.223V89.09H122.183V87.89Z" fill="black"/>
<path d="M129.829 96.978C129.829 95.762 129.349 94.754 127.749 93.81L126.021 92.802C124.789 92.082 124.405 91.602 124.405 90.642C124.405 89.746 124.725 88.93 126.341 88.93C127.925 88.93 128.453 89.746 128.453 90.818H129.733C129.733 89.058 128.421 87.746 126.437 87.746C124.437 87.746 123.157 88.978 123.157 90.626C123.157 91.874 123.669 92.722 125.045 93.554L127.109 94.786C128.229 95.458 128.613 96.002 128.613 96.93C128.613 97.986 128.021 98.866 126.421 98.866C124.853 98.866 124.277 98.05 124.277 96.978H122.997C122.997 98.802 124.213 100.034 126.421 100.034C128.469 100.034 129.829 98.738 129.829 96.978Z" fill="black"/>
<path d="M130.913 99.89H132.097V98.226H130.913V99.89Z" fill="black"/>
</svg>
