<svg width="295" height="109" viewBox="0 0 295 109" fill="none" xmlns="http://www.w3.org/2000/svg">
<path d="M0 30.72H11.61V27.42H3.3V20.49H9.84V17.55H3.3V11.52H11.61V8.22H0V30.72Z" fill="black"/>
<path d="M20.933 27.96C18.533 27.96 17.363 26.55 17.363 24.75H14.213C14.213 28.47 16.643 30.99 20.933 30.99C24.773 30.99 27.383 28.11 27.383 25.17C27.383 22.17 26.003 20.64 23.543 19.2L20.543 17.43C18.833 16.44 17.783 15.63 17.783 13.83C17.783 12.15 19.103 10.98 20.843 10.98C22.943 10.98 23.693 12.54 23.693 13.71H26.843C26.843 10.41 24.533 7.95 21.023 7.95C16.883 7.95 14.423 10.77 14.423 13.8C14.423 16.14 15.383 18.09 17.963 19.62L22.133 22.08C23.123 22.68 24.053 23.55 24.053 25.08C24.053 26.76 22.883 27.96 20.933 27.96Z" fill="black"/>
<path d="M40.6598 11.55V8.22H27.7598V11.55H32.5598V30.72H35.8598V11.55H40.6598Z" fill="black"/>
<path d="M51.8571 14.73C51.8571 17.01 50.6571 17.91 48.2271 17.91H46.3371V11.55H48.2271C50.6571 11.55 51.8571 12.45 51.8571 14.73ZM55.3371 14.73C55.3371 10.65 52.4571 8.22 48.2571 8.22H43.0371V30.72H46.3371V21.42L53.1471 30.72H57.1371L50.0571 21.09C53.2671 20.46 55.3371 18.18 55.3371 14.73Z" fill="black"/>
<path d="M66.8227 7.83L57.6727 30.72H61.1827L62.5627 27.24H71.0827L72.4627 30.72H75.9727L66.8227 7.83ZM66.8227 16.53L69.9127 24.3H63.7327L66.8227 16.53Z" fill="black"/>
<path d="M86.7438 11.55V8.22H73.8438V11.55H78.6438V30.72H81.9438V11.55H86.7438Z" fill="black"/>
<path d="M92.8711 4.86L95.1511 6.87L99.8011 2.49L96.9511 0L92.8711 4.86ZM89.1211 30.72H100.731V27.42H92.4211V20.49H98.9611V17.55H92.4211V11.52H100.731V8.22H89.1211V30.72Z" fill="black"/>
<path d="M124.828 24.33V18.18H113.758V21.12H121.738V23.46C120.868 25.41 118.588 27.69 114.478 27.69C109.978 27.69 106.258 23.97 106.258 19.47C106.258 14.97 109.978 11.25 114.478 11.25C117.478 11.25 119.638 12.81 120.988 14.52L123.628 12.54C121.528 9.75 118.228 7.95 114.478 7.95C108.058 7.95 102.928 13.11 102.928 19.47C102.928 25.83 108.058 30.99 114.478 30.99C119.668 30.99 123.178 28.02 124.828 24.33Z" fill="black"/>
<path d="M131.122 8.22H127.822V30.72H131.122V8.22Z" fill="black"/>
<path d="M142.672 7.83L133.522 30.72H137.032L138.412 27.24H146.932L148.312 30.72H151.822L142.672 7.83ZM142.672 16.53L145.762 24.3H139.582L142.672 16.53Z" fill="black"/>
<path d="M163.828 30.72H175.438V27.42H167.128V20.49H173.668V17.55H167.128V11.52H175.438V8.22H163.828V30.72Z" fill="black"/>
<path d="M6.51 41.52C8.55 41.52 9.72 42.45 9.72 44.34C9.72 46.62 8.55 47.97 6.06 47.97H3.3V41.52H6.51ZM6.87 50.76C9.36 50.76 10.32 52.35 10.32 54.57C10.32 56.85 8.97 57.42 7.35 57.42H3.3V50.76H6.87ZM0 60.72H7.47C11.49 60.72 13.62 57.78 13.62 54.57C13.62 52.47 12.75 50.28 10.89 49.14C12.24 48.06 13.05 46.35 13.05 44.4C13.05 41.16 10.68 38.22 6.57 38.22H0V60.72Z" fill="black"/>
<path d="M25.5778 44.73C25.5778 47.01 24.3778 47.91 21.9478 47.91H20.0578V41.55H21.9478C24.3778 41.55 25.5778 42.45 25.5778 44.73ZM29.0578 44.73C29.0578 40.65 26.1778 38.22 21.9778 38.22H16.7578V60.72H20.0578V51.42L26.8678 60.72H30.8578L23.7778 51.09C26.9878 50.46 29.0578 48.18 29.0578 44.73Z" fill="black"/>
<path d="M40.5434 37.83L31.3934 60.72H34.9034L36.2834 57.24H44.8034L46.1834 60.72H49.6934L40.5434 37.83ZM40.5434 46.53L43.6334 54.3H37.4534L40.5434 46.53Z" fill="black"/>
<path d="M69.6098 61.29V38.22H66.3098V53.1L52.0898 37.38V60.72H55.3898V45.57L69.6098 61.29Z" fill="black"/>
<path d="M80.3988 41.55C84.9288 41.55 88.6488 44.97 88.6488 49.44C88.6488 53.88 84.9288 57.39 80.3988 57.39H77.0988V41.55H80.3988ZM73.7988 60.72H80.5188C86.8188 60.72 91.9488 55.83 91.9488 49.47C91.9488 43.14 86.8788 38.22 80.5188 38.22H73.7988V60.72Z" fill="black"/>
<path d="M97.9875 38.22H94.6875V60.72H97.9875V38.22Z" fill="black"/>
<path d="M119.708 61.29V38.22H116.408V53.1L102.188 37.38V60.72H105.488V45.57L119.708 61.29Z" fill="black"/>
<path d="M144.896 54.33V48.18H133.826V51.12H141.806V53.46C140.936 55.41 138.656 57.69 134.546 57.69C130.046 57.69 126.326 53.97 126.326 49.47C126.326 44.97 130.046 41.25 134.546 41.25C137.546 41.25 139.706 42.81 141.056 44.52L143.696 42.54C141.596 39.75 138.296 37.95 134.546 37.95C128.126 37.95 122.996 43.11 122.996 49.47C122.996 55.83 128.126 60.99 134.546 60.99C139.736 60.99 143.246 58.02 144.896 54.33Z" fill="black"/>
<path d="M3.172 76.904C5.044 76.904 5.812 78.28 5.812 79.512C5.812 80.744 5.044 82.12 3.172 82.12H1.204V76.904H3.172ZM3.172 83.304C5.444 83.304 6.996 81.688 6.996 79.512C6.996 77.336 5.444 75.72 3.172 75.72H0.02V87.72H1.204V83.304H3.172Z" fill="black"/>
<path d="M8.87938 87.72H14.1914V86.536H10.0634V75.72H8.87938V87.72Z" fill="black"/>
<path d="M19.8306 75.272L14.9506 87.72H16.2466L17.2066 85.24H22.4546L23.4146 87.72H24.7106L19.8306 75.272ZM19.8306 78.456L21.9906 84.056H17.6706L19.8306 78.456Z" fill="black"/>
<path d="M30.6952 75.72H23.5753V76.904H26.5513V87.72H27.7353V76.92H30.6952V75.72Z" fill="black"/>
<path d="M34.5962 75.272L29.7162 87.72H31.0123L31.9722 85.24H37.2202L38.1803 87.72H39.4762L34.5962 75.272ZM34.5962 78.456L36.7562 84.056H32.4362L34.5962 78.456Z" fill="black"/>
<path d="M40.7544 87.72H41.9384V82.424H46.0024V81.24H41.9384V76.904H46.9464V75.72H40.7544V87.72Z" fill="black"/>
<path d="M53.8711 87.864C57.2631 87.864 60.0151 85.112 60.0151 81.72C60.0151 78.328 57.2631 75.576 53.8711 75.576C50.4631 75.576 47.7111 78.328 47.7111 81.72C47.7111 85.112 50.4631 87.864 53.8711 87.864ZM58.8311 81.72C58.8311 84.424 56.5751 86.68 53.8711 86.68C51.1511 86.68 48.8951 84.424 48.8951 81.72C48.8951 79.016 51.1511 76.76 53.8711 76.76C56.5751 76.76 58.8311 79.016 58.8311 81.72Z" fill="black"/>
<path d="M64.5068 76.904C66.3788 76.904 67.1148 77.96 67.1148 79.192C67.1148 80.472 66.5388 81.608 64.5068 81.608H62.9227V76.904H64.5068ZM67.7868 87.72H69.2588L64.9867 82.776C67.0507 82.616 68.2988 81.32 68.2988 79.192C68.2988 77.016 66.7628 75.72 64.5228 75.72H61.7388V87.72H62.9227V82.792H63.4668L67.7868 87.72Z" fill="black"/>
<path d="M71.704 87.72V79.32L76.616 86.6L81.528 79.32V87.72H82.712V75.272L76.616 84.584L70.52 75.272V87.72H71.704Z" fill="black"/>
<path d="M88.8775 75.272L83.9975 87.72H85.2935L86.2535 85.24H91.5015L92.4615 87.72H93.7575L88.8775 75.272ZM88.8775 78.456L91.0375 84.056H86.7175L88.8775 78.456Z" fill="black"/>
<path d="M101.42 84.808C101.42 83.592 100.94 82.584 99.3396 81.64L97.6116 80.632C96.3796 79.912 95.9956 79.432 95.9956 78.472C95.9956 77.576 96.3156 76.76 97.9316 76.76C99.5156 76.76 100.044 77.576 100.044 78.648H101.324C101.324 76.888 100.012 75.576 98.0276 75.576C96.0276 75.576 94.7476 76.808 94.7476 78.456C94.7476 79.704 95.2596 80.552 96.6356 81.384L98.6996 82.616C99.8196 83.288 100.204 83.832 100.204 84.76C100.204 85.816 99.6116 86.696 98.0116 86.696C96.4436 86.696 95.8676 85.88 95.8676 84.808H94.5876C94.5876 86.632 95.8036 87.864 98.0116 87.864C100.06 87.864 101.42 86.568 101.42 84.808Z" fill="black"/>
<path d="M111.965 86.536H109.485V76.904H111.965C114.509 76.904 116.797 78.856 116.797 81.688C116.797 84.648 114.509 86.536 111.965 86.536ZM108.301 87.72H112.029C115.389 87.72 117.981 85 117.981 81.688C117.981 78.392 115.421 75.752 112.013 75.72H108.301V87.72Z" fill="black"/>
<path d="M119.582 87.72H125.774V86.536H120.767V82.072H124.83V80.888H120.767V76.904H125.774V75.72H119.582V87.72Z" fill="black"/>
<path d="M133.923 87.72V79.32L138.835 86.6L143.747 79.32V87.72H144.931V75.272L138.835 84.584L132.739 75.272V87.72H133.923Z" fill="black"/>
<path d="M151.096 75.272L146.216 87.72H147.512L148.472 85.24H153.72L154.68 87.72H155.976L151.096 75.272ZM151.096 78.456L153.256 84.056H148.936L151.096 78.456Z" fill="black"/>
<path d="M160.022 76.904C161.894 76.904 162.63 77.96 162.63 79.192C162.63 80.472 162.054 81.608 160.022 81.608H158.438V76.904H160.022ZM163.302 87.72H164.774L160.502 82.776C162.566 82.616 163.814 81.32 163.814 79.192C163.814 77.016 162.278 75.72 160.038 75.72H157.254V87.72H158.438V82.792H158.982L163.302 87.72Z" fill="black"/>
<path d="M171.043 87.864C173.475 87.864 175.571 86.44 176.563 84.392L175.475 83.88C174.675 85.528 172.979 86.68 171.043 86.68C168.307 86.68 166.067 84.424 166.067 81.72C166.067 79.016 168.307 76.76 171.043 76.76C172.979 76.76 174.675 77.896 175.475 79.544L176.563 79.048C175.571 77 173.475 75.576 171.043 75.576C167.619 75.576 164.883 78.328 164.883 81.72C164.883 85.112 167.619 87.864 171.043 87.864Z" fill="black"/>
<path d="M181.69 75.272L176.81 87.72H178.106L179.066 85.24H184.314L185.274 87.72H186.57L181.69 75.272ZM181.69 78.456L183.85 84.056H179.53L181.69 78.456Z" fill="black"/>
<path d="M196.637 86.536H194.157V76.904H196.637C199.181 76.904 201.469 78.856 201.469 81.688C201.469 84.648 199.181 86.536 196.637 86.536ZM192.973 87.72H196.701C200.061 87.72 202.653 85 202.653 81.688C202.653 78.392 200.093 75.752 196.685 75.72H192.973V87.72Z" fill="black"/>
<path d="M208.158 87.864H208.686C210.846 87.864 212.59 86.344 212.59 84.168V75.72H211.406V84.168C211.406 85.48 210.398 86.664 208.622 86.664H208.222C206.446 86.664 205.438 85.48 205.438 84.168V75.72H204.254V84.168C204.254 86.344 205.998 87.864 208.158 87.864Z" fill="black"/>
<path d="M217.616 76.904C219.488 76.904 220.224 77.96 220.224 79.192C220.224 80.472 219.648 81.608 217.616 81.608H216.032V76.904H217.616ZM220.896 87.72H222.368L218.096 82.776C220.16 82.616 221.408 81.32 221.408 79.192C221.408 77.016 219.872 75.72 217.632 75.72H214.848V87.72H216.032V82.792H216.576L220.896 87.72Z" fill="black"/>
<path d="M227.549 75.272L222.669 87.72H223.965L224.925 85.24H230.173L231.133 87.72H232.429L227.549 75.272ZM227.549 78.456L229.709 84.056H225.389L227.549 78.456Z" fill="black"/>
<path d="M237.372 86.536H234.891V76.904H237.372C239.916 76.904 242.204 78.856 242.204 81.688C242.204 84.648 239.916 86.536 237.372 86.536ZM233.708 87.72H237.436C240.796 87.72 243.387 85 243.387 81.688C243.387 78.392 240.827 75.752 237.419 75.72H233.708V87.72Z" fill="black"/>
<path d="M250.637 87.864C254.029 87.864 256.781 85.112 256.781 81.72C256.781 78.328 254.029 75.576 250.637 75.576C247.229 75.576 244.477 78.328 244.477 81.72C244.477 85.112 247.229 87.864 250.637 87.864ZM255.597 81.72C255.597 84.424 253.341 86.68 250.637 86.68C247.917 86.68 245.661 84.424 245.661 81.72C245.661 79.016 247.917 76.76 250.637 76.76C253.341 76.76 255.597 79.016 255.597 81.72Z" fill="black"/>
<path d="M262.408 87.864H262.936C265.096 87.864 266.84 86.344 266.84 84.168V75.72H265.656V84.168C265.656 85.48 264.648 86.664 262.872 86.664H262.472C260.696 86.664 259.688 85.48 259.688 84.168V75.72H258.504V84.168C258.504 86.344 260.248 87.864 262.408 87.864Z" fill="black"/>
<path d="M271.866 76.904C273.738 76.904 274.474 77.96 274.474 79.192C274.474 80.472 273.898 81.608 271.866 81.608H270.282V76.904H271.866ZM275.146 87.72H276.618L272.346 82.776C274.41 82.616 275.658 81.32 275.658 79.192C275.658 77.016 274.122 75.72 271.882 75.72H269.098V87.72H270.282V82.792H270.826L275.146 87.72Z" fill="black"/>
<path d="M281.799 75.272L276.919 87.72H278.215L279.175 85.24H284.423L285.383 87.72H286.679L281.799 75.272ZM281.799 78.456L283.959 84.056H279.639L281.799 78.456Z" fill="black"/>
<path d="M294.341 84.808C294.341 83.592 293.862 82.584 292.262 81.64L290.534 80.632C289.302 79.912 288.918 79.432 288.918 78.472C288.918 77.576 289.237 76.76 290.853 76.76C292.437 76.76 292.966 77.576 292.966 78.648H294.246C294.246 76.888 292.933 75.576 290.949 75.576C288.949 75.576 287.669 76.808 287.669 78.456C287.669 79.704 288.181 80.552 289.557 81.384L291.621 82.616C292.741 83.288 293.125 83.832 293.125 84.76C293.125 85.816 292.534 86.696 290.934 86.696C289.366 86.696 288.789 85.88 288.789 84.808H287.509C287.509 86.632 288.726 87.864 290.934 87.864C292.982 87.864 294.341 86.568 294.341 84.808Z" fill="black"/>
<path d="M0.02 107.72H6.212V106.536H1.204V102.072H5.268V100.888H1.204V96.904H6.212V95.72H0.02V107.72Z" fill="black"/>
<path d="M14.3603 95.72H13.1763V107.72H14.3603V95.72Z" fill="black"/>
<path d="M20.2621 106.536H17.7821V96.904H20.2621C22.8061 96.904 25.0941 98.856 25.0941 101.688C25.0941 104.648 22.8061 106.536 20.2621 106.536ZM16.5981 107.72H20.3261C23.6861 107.72 26.2781 105 26.2781 101.688C26.2781 98.392 23.7181 95.752 20.3101 95.72H16.5981V107.72Z" fill="black"/>
<path d="M27.8794 107.72H34.0714V106.536H29.0634V102.072H33.1274V100.888H29.0634V96.904H34.0714V95.72H27.8794V107.72Z" fill="black"/>
<path d="M45.2546 108.024V95.72H44.0706V104.824L44.0866 104.856L35.9106 95.272V107.72H37.0946V98.456L45.2546 108.024Z" fill="black"/>
<path d="M53.6328 95.72H46.5127V96.904H49.4888V107.72H50.6727V96.92H53.6328V95.72Z" fill="black"/>
<path d="M56.079 95.72H54.895V107.72H56.079V95.72Z" fill="black"/>
<path d="M61.9809 106.536H59.5009V96.904H61.9809C64.5249 96.904 66.8129 98.856 66.8129 101.688C66.8129 104.648 64.5249 106.536 61.9809 106.536ZM58.3169 107.72H62.0449C65.4049 107.72 67.9969 105 67.9969 101.688C67.9969 98.392 65.4369 95.752 62.0289 95.72H58.3169V107.72Z" fill="black"/>
<path d="M72.7213 95.272L67.8412 107.72H69.1373L70.0973 105.24H75.3453L76.3053 107.72H77.6012L72.7213 95.272ZM72.7213 98.456L74.8812 104.056H70.5612L72.7213 98.456Z" fill="black"/>
<path d="M82.5434 106.536H80.0634V96.904H82.5434C85.0874 96.904 87.3754 98.856 87.3754 101.688C87.3754 104.648 85.0874 106.536 82.5434 106.536ZM78.8794 107.72H82.6074C85.9674 107.72 88.5594 105 88.5594 101.688C88.5594 98.392 85.9994 95.752 82.5914 95.72H78.8794V107.72Z" fill="black"/>
<path d="M90.1606 107.72H96.3526V106.536H91.3446V102.072H95.4086V100.888H91.3446V96.904H96.3526V95.72H90.1606V107.72Z" fill="black"/>
<path d="M104.576 104.808C104.576 103.592 104.096 102.584 102.496 101.64L100.768 100.632C99.5359 99.912 99.1519 99.432 99.1519 98.472C99.1519 97.576 99.4719 96.76 101.088 96.76C102.672 96.76 103.2 97.576 103.2 98.648H104.48C104.48 96.888 103.168 95.576 101.184 95.576C99.1839 95.576 97.9039 96.808 97.9039 98.456C97.9039 99.704 98.4159 100.552 99.7919 101.384L101.856 102.616C102.976 103.288 103.36 103.832 103.36 104.76C103.36 105.816 102.768 106.696 101.168 106.696C99.5999 106.696 99.0239 105.88 99.0239 104.808H97.7439C97.7439 106.632 98.9599 107.864 101.168 107.864C103.216 107.864 104.576 106.568 104.576 104.808Z" fill="black"/>
<path d="M117.105 107.864C119.537 107.864 121.634 106.44 122.626 104.392L121.537 103.88C120.737 105.528 119.041 106.68 117.105 106.68C114.369 106.68 112.13 104.424 112.13 101.72C112.13 99.016 114.369 96.76 117.105 96.76C119.041 96.76 120.737 97.896 121.537 99.544L122.626 99.048C121.634 97 119.537 95.576 117.105 95.576C113.681 95.576 110.946 98.328 110.946 101.72C110.946 105.112 113.681 107.864 117.105 107.864Z" fill="black"/>
<path d="M129.793 107.864C133.185 107.864 135.937 105.112 135.937 101.72C135.937 98.328 133.185 95.576 129.793 95.576C126.385 95.576 123.633 98.328 123.633 101.72C123.633 105.112 126.385 107.864 129.793 107.864ZM134.753 101.72C134.753 104.424 132.497 106.68 129.793 106.68C127.073 106.68 124.817 104.424 124.817 101.72C124.817 99.016 127.073 96.76 129.793 96.76C132.497 96.76 134.753 99.016 134.753 101.72Z" fill="black"/>
<path d="M147.005 108.024V95.72H145.821V104.824L145.837 104.856L137.661 95.272V107.72H138.845V98.456L147.005 108.024Z" fill="black"/>
<path d="M155.383 95.72H148.263V96.904H151.239V107.72H152.423V96.92H155.383V95.72Z" fill="black"/>
<path d="M156.645 107.72H162.837V106.536H157.829V102.072H161.893V100.888H157.829V96.904H162.837V95.72H156.645V107.72Z" fill="black"/>
<path d="M165.86 107.72V99.32L170.772 106.6L175.684 99.32V107.72H176.868V95.272L170.772 104.584L164.676 95.272V107.72H165.86Z" fill="black"/>
<path d="M182.506 96.904C184.378 96.904 184.906 97.96 184.906 99.304C184.906 100.648 184.378 101.72 182.506 101.72H180.298V96.904H182.506ZM182.506 102.904C184.778 102.904 186.09 101.48 186.09 99.304C186.09 97.128 184.778 95.72 182.506 95.72H179.114V107.72H180.298V102.904H182.506Z" fill="black"/>
<path d="M193.621 107.864C197.013 107.864 199.765 105.112 199.765 101.72C199.765 98.328 197.013 95.576 193.621 95.576C190.213 95.576 187.461 98.328 187.461 101.72C187.461 105.112 190.213 107.864 193.621 107.864ZM198.581 101.72C198.581 104.424 196.325 106.68 193.621 106.68C190.901 106.68 188.645 104.424 188.645 101.72C188.645 99.016 190.901 96.76 193.621 96.76C196.325 96.76 198.581 99.016 198.581 101.72Z" fill="black"/>
<path d="M204.257 96.904C206.129 96.904 206.865 97.96 206.865 99.192C206.865 100.472 206.289 101.608 204.257 101.608H202.673V96.904H204.257ZM207.537 107.72H209.009L204.737 102.776C206.801 102.616 208.049 101.32 208.049 99.192C208.049 97.016 206.513 95.72 204.273 95.72H201.489V107.72H202.673V102.792H203.217L207.537 107.72Z" fill="black"/>
<path d="M215.934 95.032L216.686 94.392L214.51 92.008H213.95L211.774 94.392L212.526 95.032L214.222 93.416L215.934 95.032ZM214.19 95.272L209.31 107.72H210.606L211.566 105.24H216.814L217.774 107.72H219.07L214.19 95.272ZM214.19 98.456L216.35 104.056H212.03L214.19 98.456Z" fill="black"/>
<path d="M229.692 108.024V95.72H228.508V104.824L228.524 104.856L220.348 95.272V107.72H221.532V98.456L229.692 108.024Z" fill="black"/>
<path d="M231.926 107.72H238.118V106.536H233.11V102.072H237.174V100.888H233.11V96.904H238.118V95.72H231.926V107.72Z" fill="black"/>
<path d="M243.878 95.272L238.997 107.72H240.294L241.253 105.24H246.501L247.462 107.72H248.758L243.878 95.272ZM243.878 98.456L246.038 104.056H241.717L243.878 98.456Z" fill="black"/>
<path d="M256.42 104.808C256.42 103.592 255.94 102.584 254.34 101.64L252.612 100.632C251.38 99.912 250.996 99.432 250.996 98.472C250.996 97.576 251.316 96.76 252.932 96.76C254.516 96.76 255.044 97.576 255.044 98.648H256.324C256.324 96.888 255.012 95.576 253.028 95.576C251.028 95.576 249.748 96.808 249.748 98.456C249.748 99.704 250.26 100.552 251.636 101.384L253.7 102.616C254.82 103.288 255.204 103.832 255.204 104.76C255.204 105.816 254.612 106.696 253.012 106.696C251.444 106.696 250.868 105.88 250.868 104.808H249.588C249.588 106.632 250.804 107.864 253.012 107.864C255.06 107.864 256.42 106.568 256.42 104.808Z" fill="black"/>
<path d="M257.504 107.72H258.688V106.056H257.504V107.72Z" fill="black"/>
</svg>
